# Blender 3.3.1
# www.blender.org
mtllib deco_dumptruck_sand.mtl
o DumptruckSand
v 11.593562 -0.383142 -12.029203
v 11.808823 -0.316847 -12.054255
v 10.988973 -0.532776 -11.973454
v 10.087576 -0.061552 -10.961126
v 11.064113 -0.311161 -11.730743
v 10.914794 -0.406830 -11.770750
v 10.182946 -0.813656 -11.629538
v 9.635348 -0.924674 -11.561523
v 9.894001 0.337582 -10.240837
v 10.759426 1.051687 -8.994047
v 9.764452 0.386311 -9.977118
v 9.433592 0.178974 -9.773743
v 10.674644 -0.077198 -10.807007
v 11.311105 0.944645 -8.948947
v 10.701114 0.337232 -10.248401
v 9.567513 0.185312 -7.537842
v 10.406357 1.040710 -8.487391
v 10.598750 0.661345 -9.735483
v 10.847188 1.005086 -8.287367
v 10.316540 0.638941 -8.003995
v 10.546206 0.959414 -8.287422
v 8.677172 -0.807502 -8.588504
v 8.986531 -0.336676 -7.608336
v 9.557095 0.361864 -8.598290
v 10.883984 -0.263600 -11.125896
v 11.549287 -0.267642 -11.581742
v 11.962979 -0.162917 -11.445598
v 11.350703 -0.161598 -10.597887
v 10.654048 -0.655828 -11.773669
v 11.478121 -0.253117 -10.986245
v 11.241380 -0.477844 -12.032170
v 8.951878 -0.736911 -9.926271
v 10.588878 -0.477091 -11.516897
v 8.303977 -1.399296 -10.442255
v 8.285164 -1.374078 -11.139435
v 8.573685 -1.271797 -10.439991
v 9.110182 -0.728046 -10.571419
v 8.839712 -1.142856 -11.001942
v 9.316689 -1.006493 -11.351606
v 8.577614 -0.978456 -9.062075
v 9.114185 -1.091414 -11.227480
v 9.837400 -0.690765 -11.507008
v 11.900104 -0.217231 -11.717993
v 8.905832 -0.547925 -8.736176
v 9.389709 -0.365486 -10.794292
v 9.010931 -0.503026 -9.399114
v 9.224693 0.021364 -8.191630
v 8.465786 -1.182826 -9.695293
v 10.008242 -0.327628 -11.246031
v 8.967295 -1.038045 -10.872687
v 12.728004 0.788398 -8.163504
v 12.565197 0.637412 -8.842168
v 12.014380 0.318740 -9.390018
v 12.391795 0.731444 -8.556829
v 10.247847 1.004341 -8.870040
v 12.185178 0.767610 -8.014179
v 11.893938 0.811214 -8.158921
v 8.999619 -0.950965 -10.709553
v 12.197923 0.635770 -8.858198
v 12.325384 0.775483 -8.325664
v 12.025222 0.785921 -8.622824
v 9.603849 -0.576581 -11.294891
v 8.790297 -1.096483 -10.375526
v 10.649389 -0.313478 -11.278122
v 8.507277 -1.287474 -11.208862
v 8.760207 -1.213488 -11.225964
v 10.301401 -0.554558 -11.467274
v 11.935424 0.852704 -8.393076
v 11.823405 0.731301 -8.881659
v 11.672282 0.692013 -7.859347
v 10.118683 0.645001 -9.629652
v 10.700984 1.123102 -8.557761
v 11.516254 0.796821 -8.037600
v 10.069893 0.435265 -7.797189
v 9.737075 0.505615 -8.267467
v 9.832380 0.475438 -8.024904
v 10.660354 0.352961 -7.543453
v 9.782844 0.092079 -7.200242
v 11.268782 0.036994 -10.252312
v 8.780604 -0.932706 -9.653390
v 10.423702 -0.315653 -11.241966
v 9.273514 -0.138719 -10.121616
v 9.181572 -0.154245 -7.291430
v 8.926601 -0.374892 -7.318238
v 8.810582 -0.631970 -8.020267
v 9.118427 -0.268851 -6.996238
v 9.623181 0.237411 -10.154701
v 9.562151 -0.101567 -10.710343
v 9.891565 0.563891 -9.516993
v 10.122129 0.406514 -10.211620
v 9.214581 -0.093097 -9.614048
v 10.753403 0.566355 -7.813476
v 11.013993 1.053460 -8.925550
v 10.351587 0.688534 -9.664597
v 10.790031 1.131607 -8.752668
v 10.390370 0.370803 -10.297009
v 11.900958 0.067036 -10.105379
v 9.875493 0.707357 -8.868761
v 9.676864 0.394341 -9.330922
v 10.136080 0.925987 -8.603672
v 12.411897 0.349588 -9.521274
v 11.205146 1.070040 -8.478142
v 11.733289 0.435200 -9.311125
v 9.327518 0.138076 -7.892341
v 9.807897 -0.189526 -11.044424
v 11.363473 1.026852 -8.682199
v 10.485266 1.081591 -8.886030
v 9.414339 0.079498 -9.079038
v 9.117052 -0.317773 -9.090135
v 11.102454 0.603843 -9.586134
v 8.172404 -1.434911 -11.076876
v 9.039588 -0.318141 -6.965859
vn -0.3119 0.9120 -0.2663
vn -0.5729 0.5856 -0.5735
vn -0.3004 0.7488 -0.5908
vn -0.0849 0.8247 0.5592
vn -0.6341 0.7728 -0.0275
vn 0.1037 0.8868 -0.4503
vn -0.1339 0.8818 0.4521
vn 0.1957 0.8696 -0.4533
vn 0.0367 0.9230 0.3830
vn -0.5397 0.8011 0.2586
vn 0.3844 0.7558 -0.5301
vn -0.3103 0.8786 -0.3629
vn -0.0787 0.7952 0.6013
vn -0.4237 0.8782 -0.2219
vn -0.7778 0.6149 -0.1302
vn 0.1775 0.7863 -0.5918
vn -0.2320 0.8873 0.3985
vn 0.2217 0.8540 -0.4707
vn 0.3913 0.7468 -0.5378
vn 0.1240 0.8667 -0.4832
vn -0.4308 0.7907 -0.4350
vn 0.4351 0.6960 -0.5712
vn 0.0802 0.9432 -0.3225
vn 0.3486 0.8742 -0.3379
vn 0.2610 0.8217 -0.5066
vn -0.0806 0.8891 -0.4506
vn -0.6233 0.7813 -0.0317
vn 0.3837 0.7328 -0.5619
vn -0.3285 0.8867 -0.3252
vn -0.1105 0.9429 -0.3142
vn -0.2248 0.9012 -0.3706
vn -0.7101 0.6330 -0.3082
vn 0.2303 0.7912 -0.5666
vn -0.7938 0.5972 -0.1151
vn -0.5938 0.7941 0.1297
vn -0.0244 0.8927 -0.4500
vn -0.7263 0.6871 -0.0184
vn -0.7928 0.6055 -0.0694
vn -0.8883 0.4582 0.0304
vn -0.4544 0.8326 -0.3166
vn -0.1967 0.9692 -0.1479
vn -0.8106 0.5673 -0.1451
vn 0.1236 0.8049 -0.5804
vn -0.5290 0.6397 -0.5576
vn -0.3224 0.7466 -0.5819
vn -0.8348 0.5318 -0.1424
vn -0.0796 0.8927 -0.4435
vn 0.2438 0.8647 -0.4391
vn -0.0310 0.8924 -0.4502
vn -0.0145 0.7328 -0.6803
vn -0.8251 0.5302 -0.1952
vn 0.1868 0.9804 -0.0626
vn 0.3008 0.8932 -0.3343
vn -0.0296 0.8943 -0.4464
vn 0.1759 0.8477 -0.5005
vn -0.8300 0.5262 -0.1849
vn -0.4224 0.8314 -0.3611
vn -0.5139 0.7949 -0.3225
vn -0.7406 0.5876 -0.3260
vn -0.7187 0.6454 -0.2587
vn -0.5989 0.7808 -0.1783
vn -0.5878 0.7959 -0.1448
vn -0.3595 0.7494 0.5561
vn -0.0549 0.8480 -0.5271
vn 0.1701 0.8480 -0.5019
vn -0.8904 0.4323 -0.1422
vn -0.7558 0.6508 0.0722
vn -0.0235 0.7359 0.6767
vn -0.1124 0.7401 0.6630
vn 0.3640 0.7665 -0.5292
vn -0.7637 0.6094 -0.2131
vn -0.8886 0.4576 0.0308
vn 0.0342 0.9752 -0.2186
vn -0.1454 0.7430 -0.6534
vn -0.0935 0.5588 -0.8240
vn -0.8358 0.4602 -0.2995
vn -0.8879 0.4081 -0.2123
vn -0.2237 0.8258 -0.5177
vn -0.5323 0.7765 -0.3372
vn -0.5780 0.8114 -0.0874
vn -0.2756 0.6431 -0.7144
vn -0.7476 0.6633 -0.0329
vn -0.2875 0.9380 -0.1937
vn -0.6977 0.6956 -0.1712
vn -0.7350 0.6738 0.0761
vn -0.8185 0.5611 -0.1236
vn -0.6336 0.5777 -0.5146
vn -0.1135 0.6145 -0.7807
vn -0.7805 0.4585 -0.4251
vn -0.6816 0.5228 -0.5120
vn -0.0128 0.6895 -0.7242
vn -0.7476 0.6360 -0.1914
vn -0.4070 0.8633 -0.2984
vn -0.6033 0.7839 -0.1465
vn -0.5668 0.4680 -0.6780
vn -0.5861 0.7901 -0.1793
vn -0.5961 0.7813 -0.1852
vn -0.6023 0.7889 -0.1217
vn -0.3214 0.9298 -0.1791
vn -0.1887 0.3746 -0.9078
vn -0.4135 0.5298 -0.7405
vn -0.4501 0.8913 0.0553
vn -0.4273 0.9033 0.0379
vn -0.3903 0.9203 0.0264
vn -0.3750 0.9259 -0.0447
vn -0.4202 0.8919 -0.1674
vn -0.2483 0.9317 -0.2651
vn -0.2241 0.9013 -0.3707
vn -0.3026 0.7313 -0.6112
vn -0.5596 0.6068 -0.5644
vn -0.0955 0.8323 -0.5461
vn -0.1333 0.9841 -0.1171
vn -0.2903 0.5997 -0.7457
vn -0.3702 0.7945 -0.4815
vn -0.1871 0.8371 -0.5141
vn -0.4129 0.6950 -0.5886
vn -0.4615 0.7820 -0.4189
vn -0.3161 0.9325 -0.1746
vn -0.0116 0.9996 -0.0258
vn -0.4420 0.8311 -0.3375
vn -0.2223 0.9496 -0.2210
vn -0.3373 0.9251 -0.1743
vn -0.0597 0.9936 -0.0959
vn 0.0603 0.8881 -0.4557
vn -0.2292 0.9720 -0.0511
vn -0.1503 0.9501 -0.2732
vn -0.3309 0.6294 -0.7031
vn 0.2282 0.8984 -0.3753
vn -0.9088 0.4096 -0.0799
vn -0.8495 0.5250 -0.0514
vn -0.8307 0.5404 -0.1337
vn -0.7975 0.5938 0.1062
vn 0.0394 0.9836 -0.1761
vn -0.1861 0.9190 -0.3475
vn 0.1216 0.9623 -0.2433
vn -0.1726 0.9374 -0.3025
vn -0.0357 0.9993 0.0092
vn 0.0187 0.8560 -0.5167
vn 0.4253 0.7389 -0.5226
vn -0.4213 0.9026 0.0887
vn -0.5308 0.7900 0.3068
vn -0.6888 0.7202 0.0831
vn 0.2063 0.8865 -0.4142
vn 0.2223 0.9561 -0.1910
vn 0.2508 0.8890 -0.3831
vn 0.0092 0.9514 -0.3079
vn 0.2559 0.9431 0.2124
vn 0.0910 0.9922 0.0849
vn 0.1571 0.9673 0.1992
vn 0.1836 0.8152 -0.5493
vn 0.1053 0.8948 0.4339
vn 0.1697 0.9759 -0.1372
vn -0.6131 0.7680 -0.1852
vn -0.3578 0.7815 0.5111
vn -0.3070 0.9510 0.0368
vn 0.1111 0.9910 0.0750
vn -0.4960 0.7785 0.3847
vn 0.2347 0.7766 -0.5847
vn -0.8468 0.5316 -0.0194
vn -0.0329 0.9368 0.3484
vn -0.2395 0.8858 0.3974
vn -0.1365 0.8787 0.4573
vn -0.0193 0.9499 -0.3120
vn -0.1509 0.9882 -0.0258
vn -0.4319 0.8585 0.2765
vn -0.5170 0.8215 0.2405
vn -0.1395 0.7997 0.5839
vn 0.0947 0.8746 0.4755
vn -0.2584 0.9649 0.0478
vn 0.1980 0.9637 -0.1791
vn -0.0785 0.8801 0.4682
vn 0.2834 0.9589 0.0169
vn -0.1182 0.7743 0.6216
vn 0.1154 0.8786 0.4634
vn -0.1355 0.7819 0.6085
vn -0.2265 0.8846 -0.4077
vn -0.1738 0.7194 0.6726
vn 0.3496 0.9274 -0.1329
vn 0.3911 0.7903 -0.4717
vn -0.6138 0.7750 -0.1507
vn -0.6519 0.7575 -0.0349
vn -0.6561 0.7402 0.1471
vn -0.8147 0.5680 -0.1168
vn -0.5216 0.8527 0.0299
vn -0.7569 0.6531 -0.0240
vn -0.7982 0.5961 -0.0864
vn -0.7725 0.6243 0.1161
vn -0.5806 0.7932 0.1838
vn -0.7822 0.6054 -0.1472
vn -0.7846 0.6053 -0.1345
vn -0.7997 0.5990 0.0412
vn -0.3219 0.8398 0.4372
vt 0.734591 0.291203
vt 0.732117 0.266192
vt 0.742209 0.360377
vt 0.627415 0.469524
vt 0.707320 0.352055
vt 0.717800 0.370038
vt 0.733524 0.462619
vt 0.732660 0.525135
vt 0.548997 0.496895
vt 0.408593 0.439561
vt 0.526220 0.515380
vt 0.520062 0.556211
vt 0.605095 0.409334
vt 0.397589 0.385073
vt 0.535249 0.421063
vt 0.303392 0.615368
vt 0.371384 0.479876
vt 0.483638 0.439756
vt 0.341738 0.448351
vt 0.326359 0.511190
vt 0.349677 0.475788
vt 0.450505 0.715709
vt 0.333270 0.692803
vt 0.405382 0.576378
vt 0.647056 0.375147
vt 0.687611 0.305576
vt 0.652325 0.270735
vt 0.581584 0.338002
vt 0.735255 0.405183
vt 0.623887 0.318961
vt 0.741234 0.329765
vt 0.577390 0.640000
vt 0.704754 0.410388
vt 0.671619 0.717337
vt 0.743033 0.690628
vt 0.661341 0.686272
vt 0.639213 0.605216
vt 0.706728 0.634476
vt 0.721529 0.563824
vt 0.510026 0.723683
vt 0.720810 0.594588
vt 0.710672 0.496609
vt 0.692818 0.261842
vt 0.455272 0.683661
vt 0.634891 0.555131
vt 0.520541 0.642614
vt 0.387174 0.638075
vt 0.598965 0.721184
vt 0.666776 0.480791
vt 0.684735 0.620838
vt 0.280073 0.259024
vt 0.359406 0.257046
vt 0.440421 0.294097
vt 0.334424 0.283352
vt 0.406902 0.486737
vt 0.278194 0.321435
vt 0.302251 0.350267
vt 0.659623 0.617644
vt 0.371164 0.292743
vt 0.305580 0.300705
vt 0.349300 0.322535
vt 0.686260 0.522110
vt 0.638002 0.666412
vt 0.666946 0.406378
vt 0.740614 0.662917
vt 0.732707 0.634498
vt 0.699125 0.449118
vt 0.322915 0.338896
vt 0.388023 0.333387
vt 0.271098 0.379826
vt 0.482644 0.484854
vt 0.371557 0.452583
vt 0.302162 0.393272
vt 0.311511 0.550050
vt 0.364655 0.561376
vt 0.339033 0.565220
vt 0.258187 0.503548
vt 0.259649 0.610471
vt 0.547871 0.357495
vt 0.563204 0.682666
vt 0.663080 0.435825
vt 0.566418 0.573381
vt 0.293170 0.676814
vt 0.305115 0.712956
vt 0.404896 0.724298
vt 0.265677 0.699472
vt 0.551763 0.529435
vt 0.610959 0.526134
vt 0.478700 0.515074
vt 0.541007 0.474736
vt 0.520051 0.595107
vt 0.294341 0.481905
vt 0.395442 0.416486
vt 0.480238 0.464028
vt 0.384432 0.441417
vt 0.547291 0.454623
vt 0.518897 0.294457
vt 0.415326 0.525598
vt 0.470666 0.543913
vt 0.389654 0.502425
vt 0.439321 0.252413
vt 0.351732 0.412416
vt 0.436204 0.331091
vt 0.347516 0.621873
vt 0.641368 0.499848
vt 0.365852 0.392576
vt 0.404195 0.467068
vt 0.465923 0.585683
vt 0.479718 0.633110
vt 0.466581 0.387899
vt 0.742209 0.707126
vt 0.264322 0.710494
s 0
f 2/2/1 1/1/1 26/26/1
f 3/3/2 33/33/2 6/6/2
f 5/5/3 31/31/3 3/3/3
f 73/73/4 92/92/4 70/70/4
f 99/99/5 89/89/5 12/12/5
f 25/25/6 64/64/6 13/13/6
f 17/17/7 21/21/7 19/19/7
f 28/28/8 79/79/8 53/53/8
f 72/72/9 19/19/9 102/102/9
f 16/16/10 104/104/10 83/83/10
f 110/110/11 14/14/11 69/69/11
f 71/71/12 55/55/12 107/107/12
f 92/92/13 77/77/13 70/70/13
f 11/11/14 89/89/14 71/71/14
f 24/24/15 98/98/15 108/108/15
f 96/96/16 15/15/16 13/13/16
f 76/76/17 78/78/17 74/74/17
f 53/53/18 79/79/18 103/103/18
f 110/110/19 79/79/19 15/15/19
f 10/10/20 93/93/20 18/18/20
f 88/88/21 87/87/21 9/9/21
f 69/69/22 103/103/22 110/110/22
f 95/95/23 93/93/23 10/10/23
f 106/106/24 61/61/24 14/14/24
f 15/15/25 93/93/25 14/14/25
f 18/18/26 107/107/26 10/10/26
f 55/55/27 98/98/27 100/100/27
f 79/79/28 13/13/28 15/15/28
f 9/9/29 11/11/29 71/71/29
f 97/97/30 28/28/30 53/53/30
f 90/90/31 9/9/31 71/71/31
f 87/87/32 88/88/32 82/82/32
f 96/96/33 13/13/33 81/81/33
f 109/109/34 24/24/34 108/108/34
f 98/98/35 104/104/35 75/75/35
f 96/96/36 90/90/36 94/94/36
f 47/47/37 104/104/37 24/24/37
f 99/99/38 108/108/38 98/98/38
f 46/46/39 80/80/39 109/109/39
f 55/55/40 71/71/40 89/89/40
f 27/27/41 43/43/41 26/26/41
f 91/91/42 12/12/42 82/82/42
f 81/81/43 4/4/43 96/96/43
f 62/62/44 88/88/44 105/105/44
f 6/6/45 5/5/45 3/3/45
f 80/80/46 46/46/46 32/32/46
f 81/81/47 13/13/47 64/64/47
f 28/28/48 13/13/48 79/79/48
f 96/96/49 94/94/49 18/18/49
f 81/81/50 49/49/50 4/4/50
f 37/37/51 58/58/51 32/32/51
f 106/106/52 95/95/52 102/102/52
f 106/106/53 14/14/53 93/93/53
f 94/94/54 107/107/54 18/18/54
f 18/18/55 93/93/55 15/15/55
f 45/45/56 58/58/56 37/37/56
f 9/9/57 87/87/57 11/11/57
f 39/39/58 50/50/58 58/58/58
f 82/82/59 88/88/59 45/45/59
f 87/87/60 82/82/60 12/12/60
f 87/87/61 12/12/61 11/11/61
f 11/11/62 12/12/62 89/89/62
f 20/20/63 21/21/63 17/17/63
f 90/90/64 96/96/64 4/4/64
f 18/18/65 15/15/65 96/96/65
f 82/82/66 32/32/66 91/91/66
f 108/108/67 12/12/67 91/91/67
f 73/73/68 19/19/68 92/92/68
f 21/21/69 92/92/69 19/19/69
f 15/15/70 14/14/70 110/110/70
f 32/32/71 58/58/71 63/63/71
f 46/46/72 109/109/72 91/91/72
f 30/30/73 25/25/73 28/28/73
f 105/105/74 4/4/74 49/49/74
f 42/42/75 67/67/75 7/7/75
f 45/45/76 37/37/76 82/82/76
f 32/32/77 82/82/77 37/37/77
f 9/9/78 4/4/78 105/105/78
f 50/50/79 39/39/79 41/41/79
f 38/38/80 36/36/80 50/50/80
f 42/42/81 105/105/81 49/49/81
f 104/104/82 98/98/82 24/24/82
f 66/66/83 65/65/83 38/38/83
f 99/99/84 98/98/84 89/89/84
f 99/99/85 12/12/85 108/108/85
f 109/109/86 80/80/86 44/44/86
f 45/45/87 88/88/87 62/62/87
f 42/42/88 49/49/88 67/67/88
f 58/58/89 45/45/89 39/39/89
f 39/39/90 45/45/90 62/62/90
f 49/49/91 81/81/91 67/67/91
f 63/63/92 58/58/92 50/50/92
f 50/50/93 41/41/93 38/38/93
f 40/40/94 80/80/94 48/48/94
f 39/39/95 62/62/95 8/8/95
f 36/36/96 48/48/96 63/63/96
f 80/80/97 63/63/97 48/48/97
f 50/50/98 36/36/98 63/63/98
f 38/38/99 41/41/99 66/66/99
f 42/42/100 7/7/100 8/8/100
f 8/8/101 62/62/101 42/42/101
f 111/111/102 36/36/102 35/35/102
f 34/34/103 36/36/103 111/111/103
f 36/36/104 38/38/104 35/35/104
f 38/38/105 65/65/105 35/35/105
f 36/36/106 34/34/106 48/48/106
f 1/1/107 31/31/107 26/26/107
f 90/90/108 71/71/108 94/94/108
f 67/67/109 81/81/109 33/33/109
f 29/29/110 33/33/110 3/3/110
f 81/81/111 64/64/111 33/33/111
f 5/5/112 64/64/112 25/25/112
f 7/7/113 67/67/113 33/33/113
f 88/88/114 9/9/114 105/105/114
f 9/9/115 90/90/115 4/4/115
f 29/29/116 7/7/116 33/33/116
f 5/5/117 33/33/117 64/64/117
f 97/97/118 101/101/118 27/27/118
f 26/26/119 25/25/119 30/30/119
f 33/33/120 5/5/120 6/6/120
f 43/43/121 2/2/121 26/26/121
f 97/97/122 27/27/122 30/30/122
f 26/26/123 5/5/123 25/25/123
f 31/31/124 5/5/124 26/26/124
f 27/27/125 26/26/125 30/30/125
f 97/97/126 30/30/126 28/28/126
f 105/105/127 42/42/127 62/62/127
f 25/25/128 13/13/128 28/28/128
f 46/46/129 91/91/129 32/32/129
f 44/44/130 85/85/130 47/47/130
f 80/80/131 32/32/131 63/63/131
f 108/108/132 91/91/132 109/109/132
f 51/51/133 54/54/133 60/60/133
f 52/52/134 101/101/134 53/53/134
f 54/54/135 51/51/135 52/52/135
f 101/101/136 97/97/136 53/53/136
f 60/60/137 56/56/137 51/51/137
f 53/53/138 59/59/138 52/52/138
f 103/103/139 79/79/139 110/110/139
f 55/55/140 100/100/140 17/17/140
f 76/76/141 17/17/141 75/75/141
f 100/100/142 98/98/142 75/75/142
f 61/61/143 54/54/143 59/59/143
f 68/68/144 60/60/144 61/61/144
f 69/69/145 61/61/145 59/59/145
f 52/52/146 59/59/146 54/54/146
f 57/57/147 68/68/147 102/102/147
f 72/72/148 102/102/148 95/95/148
f 57/57/149 60/60/149 68/68/149
f 103/103/150 59/59/150 53/53/150
f 70/70/151 57/57/151 73/73/151
f 60/60/152 54/54/152 61/61/152
f 89/89/153 98/98/153 55/55/153
f 76/76/154 74/74/154 17/17/154
f 107/107/155 55/55/155 17/17/155
f 57/57/156 56/56/156 60/60/156
f 17/17/157 100/100/157 75/75/157
f 103/103/158 69/69/158 59/59/158
f 23/23/159 47/47/159 85/85/159
f 56/56/160 57/57/160 70/70/160
f 78/78/161 76/76/161 16/16/161
f 17/17/162 19/19/162 72/72/162
f 107/107/163 95/95/163 10/10/163
f 107/107/164 72/72/164 95/95/164
f 16/16/165 76/76/165 75/75/165
f 16/16/166 75/75/166 104/104/166
f 74/74/167 77/77/167 92/92/167
f 73/73/168 102/102/168 19/19/168
f 72/72/169 107/107/169 17/17/169
f 95/95/170 106/106/170 93/93/170
f 74/74/171 78/78/171 77/77/171
f 68/68/172 106/106/172 102/102/172
f 17/17/173 74/74/173 20/20/173
f 57/57/174 102/102/174 73/73/174
f 92/92/175 20/20/175 74/74/175
f 107/107/176 94/94/176 71/71/176
f 92/92/177 21/21/177 20/20/177
f 106/106/178 68/68/178 61/61/178
f 14/14/179 61/61/179 69/69/179
f 40/40/180 22/22/180 80/80/180
f 23/23/181 84/84/181 83/83/181
f 84/84/182 86/86/182 83/83/182
f 44/44/183 47/47/183 109/109/183
f 84/84/184 112/112/184 86/86/184
f 22/22/185 85/85/185 44/44/185
f 85/85/186 84/84/186 23/23/186
f 104/104/187 23/23/187 83/83/187
f 86/86/188 16/16/188 83/83/188
f 44/44/189 80/80/189 22/22/189
f 109/109/190 47/47/190 24/24/190
f 104/104/191 47/47/191 23/23/191
f 78/78/192 16/16/192 86/86/192
