# Blender 3.3.1
# www.blender.org
mtllib deco_scrap_beams.mtl
o Cube
v -6.763120 2.107609 9.521356
v -6.835425 4.382771 9.404373
v -6.760273 2.093897 9.252915
v -6.832578 4.369059 9.135933
v -6.636297 2.111698 9.522491
v -6.708602 4.386859 9.405510
v -6.633451 2.097986 9.254051
v -6.705755 4.373147 9.137070
v -6.831519 4.363958 9.036069
v -6.759214 2.088796 9.153051
v -6.632391 2.092885 9.154187
v -6.704696 4.368047 9.037206
v -6.764179 2.112710 9.621220
v -6.836484 4.387872 9.504238
v -6.709661 4.391961 9.505374
v -6.637356 2.116799 9.622355
v -6.605812 4.376370 9.137965
v -6.533506 2.101208 9.254947
v -6.608658 4.390082 9.406405
v -6.536353 2.114920 9.523387
v -6.604752 4.371269 9.038100
v -6.532447 2.096107 9.155083
v -6.609717 4.395183 9.506269
v -6.537412 2.120021 9.623251
v -6.863064 2.104387 9.520460
v -6.935369 4.379549 9.403479
v -6.932522 4.365837 9.135038
v -6.860218 2.090675 9.252020
v -6.931463 4.360735 9.035173
v -6.859159 2.085574 9.152156
v -6.864123 2.109488 9.620324
v -6.936429 4.384650 9.503343
vn -0.9994 -0.0322 -0.0090
vn -0.0317 0.9982 -0.0513
vn 0.9994 0.0322 0.0090
vn 0.0317 -0.9982 0.0513
vn 0.0106 -0.0510 -0.9986
vn -0.0106 0.0510 0.9986
vt 0.125000 0.750000
vt 0.375000 0.000000
vt 0.875000 0.750000
vt 0.625000 0.000000
vt 0.125000 0.500000
vt 0.375000 0.250000
vt 0.625000 0.250000
vt 0.875000 0.500000
vt 0.375000 0.750000
vt 0.625000 0.750000
vt 0.375000 0.500000
vt 0.625000 0.500000
vt 0.625000 0.250000
vt 0.875000 0.500000
vt 0.125000 0.500000
vt 0.375000 0.250000
vt 0.375000 0.500000
vt 0.625000 0.500000
vt 0.375000 1.000000
vt 0.125000 0.750000
vt 0.625000 1.000000
vt 0.875000 0.750000
vt 0.625000 0.750000
vt 0.375000 0.750000
vt 0.625000 0.500000
vt 0.375000 0.500000
vt 0.625000 0.750000
vt 0.375000 0.750000
vt 0.625000 0.500000
vt 0.375000 0.500000
vt 0.625000 0.750000
vt 0.375000 0.750000
vt 0.125000 0.750000
vt 0.375000 0.000000
vt 0.875000 0.750000
vt 0.625000 0.000000
vt 0.625000 0.250000
vt 0.875000 0.500000
vt 0.125000 0.500000
vt 0.375000 0.250000
vt 0.625000 0.250000
vt 0.875000 0.500000
vt 0.125000 0.500000
vt 0.375000 0.250000
vt 0.375000 1.000000
vt 0.375000 0.000000
vt 0.125000 0.750000
vt 0.625000 1.000000
vt 0.875000 0.750000
vt 0.625000 0.000000
s 0
f 1/2/1 2/4/1 4/7/1 3/6/1
f 4/8/2 8/12/2 12/18/2 9/14/2
f 7/11/3 8/12/3 6/10/3 5/9/3
f 6/10/2 2/3/2 14/22/2 15/23/2
f 3/5/4 7/11/4 5/9/4 1/1/4
f 8/12/2 4/8/2 2/3/2 6/10/2
f 10/16/5 9/13/5 12/18/5 11/17/5
f 13/19/6 14/21/6 32/48/6 31/45/6
f 12/18/2 8/12/2 17/25/2 21/29/2
f 7/11/4 3/5/4 10/15/4 11/17/4
f 16/24/6 15/23/6 14/21/6 13/19/6
f 5/9/5 6/10/5 19/27/5 20/28/5
f 14/22/2 2/3/2 26/35/2 32/49/2
f 1/1/4 5/9/4 16/24/4 13/20/4
f 17/25/3 18/26/3 22/30/3 21/29/3
f 20/28/3 19/27/3 23/31/3 24/32/3
f 6/10/2 15/23/2 23/31/2 19/27/2
f 15/23/6 16/24/6 24/32/6 23/31/6
f 7/11/4 11/17/4 22/30/4 18/26/4
f 8/12/6 7/11/6 18/26/6 17/25/6
f 16/24/4 5/9/4 20/28/4 24/32/4
f 11/17/5 12/18/5 21/29/5 22/30/5
f 28/40/1 27/37/1 29/41/1 30/44/1
f 26/36/1 25/34/1 31/46/1 32/50/1
f 10/15/4 3/5/4 28/39/4 30/43/4
f 1/1/4 13/20/4 31/47/4 25/33/4
f 3/6/6 4/7/6 27/37/6 28/40/6
f 2/4/5 1/2/5 25/34/5 26/36/5
f 9/13/5 10/16/5 30/44/5 29/41/5
f 4/8/2 9/14/2 29/42/2 27/38/2
o Cube.001
v -5.390203 1.627542 12.054255
v -5.347910 4.814976 12.471333
v -5.388005 1.662387 11.787727
v -5.345712 4.849822 12.204804
v -5.263324 1.625751 12.055067
v -5.221031 4.813186 12.472145
v -5.261126 1.660598 11.788540
v -5.218833 4.848032 12.205617
v -5.344894 4.862785 12.105652
v -5.387187 1.675351 11.688574
v -5.260308 1.673561 11.689386
v -5.218015 4.860995 12.106464
v -5.391021 1.614578 12.153408
v -5.348728 4.802012 12.570485
v -5.221849 4.800222 12.571298
v -5.264143 1.612788 12.154221
v -5.118845 4.846622 12.206257
v -5.161138 1.659187 11.789180
v -5.121043 4.811775 12.472785
v -5.163336 1.624341 12.055708
v -5.118027 4.859585 12.107104
v -5.160320 1.672151 11.690027
v -5.121861 4.798812 12.571938
v -5.164155 1.611378 12.154860
v -5.490191 1.628952 12.053615
v -5.447898 4.816386 12.470692
v -5.445700 4.851232 12.204164
v -5.487993 1.663798 11.787086
v -5.444882 4.864196 12.105011
v -5.487175 1.676762 11.687934
v -5.491009 1.615989 12.152767
v -5.448716 4.803423 12.569845
vn -0.9999 0.0141 -0.0064
vn 0.0132 0.9915 0.1297
vn 0.9999 -0.0141 0.0064
vn -0.0132 -0.9915 -0.1297
vn 0.0082 0.1296 -0.9915
vn -0.0082 -0.1296 0.9915
vt 0.125000 0.750000
vt 0.375000 0.000000
vt 0.875000 0.750000
vt 0.625000 0.000000
vt 0.125000 0.500000
vt 0.375000 0.250000
vt 0.625000 0.250000
vt 0.875000 0.500000
vt 0.375000 0.750000
vt 0.625000 0.750000
vt 0.375000 0.500000
vt 0.625000 0.500000
vt 0.625000 0.250000
vt 0.875000 0.500000
vt 0.125000 0.500000
vt 0.375000 0.250000
vt 0.375000 0.500000
vt 0.625000 0.500000
vt 0.375000 1.000000
vt 0.125000 0.750000
vt 0.625000 1.000000
vt 0.875000 0.750000
vt 0.625000 0.750000
vt 0.375000 0.750000
vt 0.625000 0.500000
vt 0.375000 0.500000
vt 0.625000 0.750000
vt 0.375000 0.750000
vt 0.625000 0.500000
vt 0.375000 0.500000
vt 0.625000 0.750000
vt 0.375000 0.750000
vt 0.125000 0.750000
vt 0.375000 0.000000
vt 0.875000 0.750000
vt 0.625000 0.000000
vt 0.625000 0.250000
vt 0.875000 0.500000
vt 0.125000 0.500000
vt 0.375000 0.250000
vt 0.625000 0.250000
vt 0.875000 0.500000
vt 0.125000 0.500000
vt 0.375000 0.250000
vt 0.375000 1.000000
vt 0.375000 0.000000
vt 0.125000 0.750000
vt 0.625000 1.000000
vt 0.875000 0.750000
vt 0.625000 0.000000
s 0
f 33/52/7 34/54/7 36/57/7 35/56/7
f 36/58/8 40/62/8 44/68/8 41/64/8
f 39/61/9 40/62/9 38/60/9 37/59/9
f 38/60/8 34/53/8 46/72/8 47/73/8
f 35/55/10 39/61/10 37/59/10 33/51/10
f 40/62/8 36/58/8 34/53/8 38/60/8
f 42/66/11 41/63/11 44/68/11 43/67/11
f 45/69/12 46/71/12 64/98/12 63/95/12
f 44/68/8 40/62/8 49/75/8 53/79/8
f 39/61/10 35/55/10 42/65/10 43/67/10
f 48/74/12 47/73/12 46/71/12 45/69/12
f 37/59/11 38/60/11 51/77/11 52/78/11
f 46/72/8 34/53/8 58/85/8 64/99/8
f 33/51/10 37/59/10 48/74/10 45/70/10
f 49/75/9 50/76/9 54/80/9 53/79/9
f 52/78/9 51/77/9 55/81/9 56/82/9
f 38/60/8 47/73/8 55/81/8 51/77/8
f 47/73/12 48/74/12 56/82/12 55/81/12
f 39/61/10 43/67/10 54/80/10 50/76/10
f 40/62/12 39/61/12 50/76/12 49/75/12
f 48/74/10 37/59/10 52/78/10 56/82/10
f 43/67/11 44/68/11 53/79/11 54/80/11
f 60/90/7 59/87/7 61/91/7 62/94/7
f 58/86/7 57/84/7 63/96/7 64/100/7
f 42/65/10 35/55/10 60/89/10 62/93/10
f 33/51/10 45/70/10 63/97/10 57/83/10
f 35/56/12 36/57/12 59/87/12 60/90/12
f 34/54/11 33/52/11 57/84/11 58/86/11
f 41/63/11 42/66/11 62/94/11 61/91/11
f 36/58/8 41/64/8 61/92/8 59/88/8
o Cube.002
v -6.759758 2.816776 14.802282
v -8.289079 3.865917 7.378210
v -6.559689 2.649383 14.737413
v -8.089009 3.698523 7.313342
v -6.678895 2.914526 14.799438
v -8.208216 3.963667 7.375367
v -6.478826 2.747133 14.734570
v -8.008146 3.796273 7.310498
v -8.014581 3.636250 7.289209
v -6.485260 2.587109 14.713282
v -6.404397 2.684859 14.710438
v -7.933717 3.734000 7.286366
v -6.834187 2.879050 14.826414
v -8.363508 3.928190 7.402342
v -8.282644 4.025940 7.399498
v -6.753324 2.976800 14.823570
v -7.944421 3.873306 7.308257
v -6.415100 2.824166 14.732328
v -8.144490 4.040700 7.373126
v -6.615169 2.991559 14.797197
v -7.869992 3.811033 7.284124
v -6.340671 2.761892 14.708197
v -8.218919 4.102973 7.397258
v -6.689598 3.053833 14.821329
v -6.823483 2.739743 14.804523
v -8.352804 3.788884 7.380451
v -8.152735 3.621490 7.315583
v -6.623414 2.572350 14.739655
v -8.078306 3.559217 7.291451
v -6.548985 2.510076 14.715523
v -6.897912 2.802016 14.828655
v -8.427233 3.851157 7.404583
vn -0.6373 -0.7703 0.0224
vn -0.1999 0.1371 -0.9702
vn 0.6373 0.7703 -0.0224
vn 0.1999 -0.1371 0.9702
vn 0.7443 -0.6227 -0.2413
vn -0.7443 0.6227 0.2413
vt 0.125000 0.750000
vt 0.375000 0.000000
vt 0.875000 0.750000
vt 0.625000 0.000000
vt 0.125000 0.500000
vt 0.375000 0.250000
vt 0.625000 0.250000
vt 0.875000 0.500000
vt 0.375000 0.750000
vt 0.625000 0.750000
vt 0.375000 0.500000
vt 0.625000 0.500000
vt 0.625000 0.250000
vt 0.875000 0.500000
vt 0.125000 0.500000
vt 0.375000 0.250000
vt 0.375000 0.500000
vt 0.625000 0.500000
vt 0.375000 1.000000
vt 0.125000 0.750000
vt 0.625000 1.000000
vt 0.875000 0.750000
vt 0.625000 0.750000
vt 0.375000 0.750000
vt 0.625000 0.500000
vt 0.375000 0.500000
vt 0.625000 0.750000
vt 0.375000 0.750000
vt 0.625000 0.500000
vt 0.375000 0.500000
vt 0.625000 0.750000
vt 0.375000 0.750000
vt 0.125000 0.750000
vt 0.375000 0.000000
vt 0.875000 0.750000
vt 0.625000 0.000000
vt 0.625000 0.250000
vt 0.875000 0.500000
vt 0.125000 0.500000
vt 0.375000 0.250000
vt 0.625000 0.250000
vt 0.875000 0.500000
vt 0.125000 0.500000
vt 0.375000 0.250000
vt 0.375000 1.000000
vt 0.375000 0.000000
vt 0.125000 0.750000
vt 0.625000 1.000000
vt 0.875000 0.750000
vt 0.625000 0.000000
s 0
f 65/102/13 66/104/13 68/107/13 67/106/13
f 68/108/14 72/112/14 76/118/14 73/114/14
f 71/111/15 72/112/15 70/110/15 69/109/15
f 70/110/14 66/103/14 78/122/14 79/123/14
f 67/105/16 71/111/16 69/109/16 65/101/16
f 72/112/14 68/108/14 66/103/14 70/110/14
f 74/116/17 73/113/17 76/118/17 75/117/17
f 77/119/18 78/121/18 96/148/18 95/145/18
f 76/118/14 72/112/14 81/125/14 85/129/14
f 71/111/16 67/105/16 74/115/16 75/117/16
f 80/124/18 79/123/18 78/121/18 77/119/18
f 69/109/17 70/110/17 83/127/17 84/128/17
f 78/122/14 66/103/14 90/135/14 96/149/14
f 65/101/16 69/109/16 80/124/16 77/120/16
f 81/125/15 82/126/15 86/130/15 85/129/15
f 84/128/15 83/127/15 87/131/15 88/132/15
f 70/110/14 79/123/14 87/131/14 83/127/14
f 79/123/18 80/124/18 88/132/18 87/131/18
f 71/111/16 75/117/16 86/130/16 82/126/16
f 72/112/18 71/111/18 82/126/18 81/125/18
f 80/124/16 69/109/16 84/128/16 88/132/16
f 75/117/17 76/118/17 85/129/17 86/130/17
f 92/140/13 91/137/13 93/141/13 94/144/13
f 90/136/13 89/134/13 95/146/13 96/150/13
f 74/115/16 67/105/16 92/139/16 94/143/16
f 65/101/16 77/120/16 95/147/16 89/133/16
f 67/106/18 68/107/18 91/137/18 92/140/18
f 66/104/17 65/102/17 89/134/17 90/136/17
f 73/113/17 74/116/17 94/144/17 93/141/17
f 68/108/14 73/114/14 93/142/14 91/138/14
