# Blender 3.3.1
# www.blender.org
mtllib pyramid.mtl
o Cone.001
v 0.000000 -0.435520 -1.028998
v 0.866025 -0.435520 0.471002
v -0.866025 -0.435520 0.471002
v 0.000000 0.984598 -0.028998
vn 0.8169 0.3321 -0.4716
vn -0.0000 -1.0000 -0.0000
vn -0.0000 0.3321 0.9432
vn -0.8169 0.3321 -0.4716
vt 0.750000 0.490000
vt 0.250000 0.490000
vt 0.957846 0.130000
vt 0.457846 0.130000
vt 0.542154 0.130000
vt 0.042154 0.130000
vt 0.250000 0.250000
s 0
f 1/2/1 4/7/1 2/4/1
f 1/1/2 2/3/2 3/5/2
f 2/4/3 4/7/3 3/6/3
f 3/6/4 4/7/4 1/2/4
