# Blender 3.3.1
# www.blender.org
mtllib ramp.mtl
o Cube.001
v -0.339052 -0.002086 -0.482722
v 0.339051 -0.002086 -0.482722
v 0.339051 0.258147 -0.482722
v -0.339051 -0.002087 0.482722
v 0.339052 -0.002087 0.482722
v 0.339052 0.258147 0.482722
v -0.216287 0.015813 -0.482722
v -0.119415 0.039004 -0.482722
v -0.021392 0.066163 -0.482722
v 0.096194 0.109419 -0.482722
v 0.190189 0.157525 -0.482722
v 0.262894 0.203206 -0.482722
v -0.216286 0.015813 0.482722
v -0.119414 0.039003 0.482722
v -0.021392 0.066163 0.482722
v 0.096195 0.109419 0.482722
v 0.190190 0.157525 0.482722
v 0.262895 0.203206 0.482722
vn -0.0000 -0.0000 1.0000
vn 1.0000 -0.0000 -0.0000
vn -0.0000 -1.0000 -0.0000
vn -0.0000 -0.0000 -1.0000
vn -0.5851 0.8110 -0.0000
vn -0.5320 0.8467 -0.0000
vn -0.4556 0.8902 -0.0000
vn -0.3452 0.9385 -0.0000
vn -0.2670 0.9637 -0.0000
vn -0.2328 0.9725 -0.0000
vn -0.1443 0.9895 -0.0000
vt 0.125000 0.750000
vt 0.125000 0.500000
vt 0.375000 0.250000
vt 0.625000 0.250000
vt 0.375000 0.750000
vt 0.375000 0.500000
vt 0.625000 0.500000
vt 0.196429 0.678571
vt 0.267857 0.607143
vt 0.339286 0.535714
vt 0.410714 0.464286
vt 0.482143 0.392857
vt 0.553571 0.321429
vt 0.410714 0.714286
vt 0.446429 0.678571
vt 0.482143 0.642857
vt 0.517857 0.607143
vt 0.553571 0.571429
vt 0.589286 0.535714
s 0
f 5/6/1 16/17/1 15/16/1
f 3/4/2 5/6/2 2/3/2
f 5/6/3 1/1/3 2/2/3
f 2/3/4 9/10/4 10/11/4
f 3/4/2 6/7/2 5/6/2
f 5/6/3 4/5/3 1/1/3
f 3/4/5 18/19/5 6/7/5
f 12/13/6 17/18/6 18/19/6
f 11/12/7 16/17/7 17/18/7
f 10/11/8 15/16/8 16/17/8
f 9/10/9 14/15/9 15/16/9
f 8/9/10 13/14/10 14/15/10
f 7/8/11 4/5/11 13/14/11
f 5/6/1 6/7/1 18/19/1
f 5/6/1 18/19/1 17/18/1
f 13/14/1 4/5/1 5/6/1
f 14/15/1 13/14/1 5/6/1
f 5/6/1 17/18/1 16/17/1
f 15/16/1 14/15/1 5/6/1
f 2/3/4 1/1/4 7/8/4
f 2/3/4 7/8/4 8/9/4
f 12/13/4 3/4/4 2/3/4
f 11/12/4 12/13/4 2/3/4
f 2/3/4 8/9/4 9/10/4
f 10/11/4 11/12/4 2/3/4
f 3/4/5 12/13/5 18/19/5
f 12/13/6 11/12/6 17/18/6
f 11/12/7 10/11/7 16/17/7
f 10/11/8 9/10/8 15/16/8
f 9/10/9 8/9/9 14/15/9
f 8/9/10 7/8/10 13/14/10
f 7/8/11 1/1/11 4/5/11
