# Blender 3.3.1
# www.blender.org
mtllib ramp.mtl
o Cube
v -0.339052 -0.048843 -0.339051
v 0.339051 -0.048843 -0.339052
v 0.339051 0.339051 -0.339052
v -0.339051 -0.048843 0.339052
v 0.339052 -0.048843 0.339051
v 0.339052 0.339051 0.339051
vn -0.0000 -0.0000 1.0000
vn 1.0000 -0.0000 -0.0000
vn -0.4965 0.8680 -0.0000
vn -0.0000 -1.0000 -0.0000
vn -0.0000 -0.0000 -1.0000
vt 0.125000 0.750000
vt 0.125000 0.500000
vt 0.375000 0.250000
vt 0.625000 0.250000
vt 0.375000 0.750000
vt 0.375000 0.500000
vt 0.625000 0.500000
s 0
f 5/6/1 6/7/1 4/5/1
f 3/4/2 5/6/2 2/3/2
f 3/4/3 4/5/3 6/7/3
f 5/6/4 1/1/4 2/2/4
f 2/3/5 1/1/5 3/4/5
f 3/4/2 6/7/2 5/6/2
f 3/4/3 1/1/3 4/5/3
f 5/6/4 4/5/4 1/1/4
