# Blender 3.3.1
# www.blender.org
mtllib table7.mtl
o Cube.005
v -6.032708 -1.000000 9.030962
v -6.032708 0.000000 9.030962
v -6.032708 -1.000000 -9.030962
v -6.032708 0.000000 -9.030962
v 6.032708 -1.000000 9.030962
v 6.032708 0.000000 9.030962
v 6.032708 -1.000000 -9.030962
v 6.032708 0.000000 -9.030962
v 2.863230 0.000000 -3.918539
v 2.863230 0.000000 -5.503168
v 4.533278 0.000000 -3.918539
v 4.533278 0.000000 -5.503168
v -2.863229 0.000000 3.918539
v -2.863229 0.000000 5.503169
v -4.533278 0.000000 3.918539
v -4.533278 0.000000 5.503169
v 2.863230 -1.000000 -3.918539
v 2.863230 -1.000000 -5.503168
v 4.533278 -1.000000 -3.918539
v 4.533278 -1.000000 -5.503168
v -2.863229 -1.000000 3.918539
v -2.863229 -1.000000 5.503169
v -4.533278 -1.000000 3.918539
v -4.533278 -1.000000 5.503169
vn -1.0000 -0.0000 -0.0000
vn -0.0000 -0.0000 -1.0000
vn 1.0000 -0.0000 -0.0000
vn -0.0000 -0.0000 1.0000
vn -0.0000 -1.0000 -0.0000
vn -0.0000 1.0000 -0.0000
vt 0.375000 1.000000
vt 0.375000 0.000000
vt 0.000000 0.000000
vt 0.625000 1.000000
vt 0.625000 0.000000
vt 0.000000 0.000000
vt 0.375000 0.250000
vt 0.000000 0.000000
vt 0.625000 0.250000
vt 0.000000 0.000000
vt 0.375000 0.750000
vt 0.000000 0.000000
vt 0.625000 0.750000
vt 0.000000 0.000000
vt 0.375000 0.500000
vt 0.000000 0.000000
vt 0.625000 0.500000
vt 0.000000 0.000000
vt 0.875000 0.750000
vt 0.000000 0.000000
vt 0.875000 0.500000
vt 0.000000 0.000000
vt 0.000000 0.000000
vt 0.000000 0.000000
vt 0.875000 0.750000
vt 0.000000 0.000000
vt 0.875000 0.500000
vt 0.000000 0.000000
vt 0.625000 0.750000
vt 0.000000 0.000000
vt 0.625000 0.500000
vt 0.000000 0.000000
vt 0.875000 0.750000
vt 0.000000 0.000000
vt 0.875000 0.500000
vt 0.000000 0.000000
vt 0.000000 0.000000
vt 0.000000 0.000000
vt 0.875000 0.750000
vt 0.000000 0.000000
vt 0.875000 0.500000
vt 0.000000 0.000000
vt 0.625000 0.750000
vt 0.000000 0.000000
vt 0.625000 0.500000
vt 0.000000 0.000000
s 0
f 2/5/1 3/7/1 1/2/1
f 4/9/2 7/15/2 3/7/2
f 8/17/3 5/11/3 7/15/3
f 6/13/4 1/1/4 5/11/4
f 2/5/1 4/9/1 3/7/1
f 4/9/2 8/17/2 7/15/2
f 8/17/3 6/13/3 5/11/3
f 6/13/4 2/4/4 1/1/4
f 17/33/5 22/41/5 21/39/5
f 23/43/5 1/2/5 3/7/5
f 5/12/5 19/37/5 7/16/5
f 9/19/6 13/25/6 14/27/6
f 2/5/6 15/29/6 4/9/6
f 11/23/6 6/14/6 8/18/6
f 17/33/5 21/39/5 18/35/5
f 23/43/5 24/45/5 1/2/5
f 7/16/5 18/36/5 3/8/5
f 3/8/5 21/40/5 23/44/5
f 18/36/5 21/40/5 3/8/5
f 24/46/5 22/42/5 1/3/5
f 1/3/5 22/42/5 5/12/5
f 19/37/5 5/12/5 17/34/5
f 17/34/5 5/12/5 22/42/5
f 7/16/5 20/38/5 18/36/5
f 7/16/5 19/37/5 20/38/5
f 9/19/6 10/21/6 13/25/6
f 2/5/6 16/31/6 15/29/6
f 8/18/6 4/10/6 10/22/6
f 4/10/6 15/30/6 13/26/6
f 10/22/6 4/10/6 13/26/6
f 16/32/6 2/6/6 14/28/6
f 2/6/6 6/14/6 14/28/6
f 11/23/6 9/20/6 6/14/6
f 9/20/6 14/28/6 6/14/6
f 8/18/6 10/22/6 12/24/6
f 8/18/6 12/24/6 11/23/6
