# Blender 3.3.1
# www.blender.org
mtllib table6.mtl
o Cube.004
v 8.208777 -1.000000 -6.850802
v 8.208777 0.000000 -6.850802
v 8.208776 -1.000000 6.850800
v 8.208776 0.000000 6.850800
v -9.885510 -1.000000 -6.850800
v -9.885510 0.000000 -6.850800
v -9.885511 -1.000000 6.850802
v -9.885511 0.000000 6.850802
v 7.118168 0.000000 -4.314259
v 7.118167 0.000000 4.314257
v -1.510347 0.000000 4.314258
v -1.510348 0.000000 -4.314258
v 3.237119 1.000000 -2.201712
v 3.237119 1.000000 2.201711
v 2.370702 1.000000 2.201712
v 2.370702 1.000000 -2.201712
v -5.999899 0.000000 2.044973
v -5.999898 0.000000 -2.044972
v -4.099366 0.000000 0.160921
v -4.099366 0.000000 -0.160919
v -5.999899 1.796443 2.044973
v -5.999898 1.796443 -2.044972
v -4.099366 1.796443 0.160921
v -4.099366 1.796443 -0.160919
v -5.999899 0.000000 1.022487
v -4.756781 0.000000 0.000000
v -5.999899 0.000000 -1.022486
v -5.999899 -1.000000 1.022487
v -4.756781 -1.000000 0.000000
v -5.999899 -1.000000 -1.022486
v -5.999899 1.439329 0.000000
v -1.918755 0.000000 0.902936
v -1.918755 0.000000 -0.817040
v -3.282551 0.000000 0.075025
v -1.918755 -1.000000 0.902936
v -1.918755 -1.000000 -0.817040
v -3.282551 -1.000000 0.075025
vn 1.0000 -0.0000 -0.0000
vn -0.0000 -0.0000 1.0000
vn -1.0000 -0.0000 -0.0000
vn -0.0000 -0.0000 -1.0000
vn -0.0000 -1.0000 -0.0000
vn -0.0000 1.0000 -0.0000
vn -0.0000 0.9039 -0.4278
vn -0.0000 0.9039 0.4278
vn -0.2495 0.9684 -0.0000
vn 0.2495 0.9684 -0.0000
vn 0.7040 -0.0000 -0.7102
vn 0.7040 -0.0000 0.7102
vn -0.6352 -0.0000 0.7723
vn -0.6352 -0.0000 -0.7723
vn -0.5569 -0.4810 0.6771
vn -0.5569 -0.4810 -0.6771
vn 0.5189 -0.0000 -0.8548
vn 0.5474 -0.0000 0.8369
vt 0.375000 0.000000
vt 0.375000 1.000000
vt 0.000000 0.000000
vt 0.625000 0.000000
vt 0.625000 1.000000
vt 0.375000 0.250000
vt 0.000000 0.000000
vt 0.625000 0.250000
vt 0.000000 0.000000
vt 0.375000 0.750000
vt 0.625000 0.750000
vt 0.375000 0.500000
vt 0.000000 0.000000
vt 0.625000 0.500000
vt 0.625000 1.000000
vt 0.625000 0.000000
vt 0.625000 0.250000
vt 0.625000 0.500000
vt 0.625000 0.750000
vt 0.625000 1.000000
vt 0.875000 0.750000
vt 0.625000 0.000000
vt 0.875000 0.500000
vt 0.625000 0.250000
vt 0.625000 0.500000
vt 0.625000 0.750000
vt 0.625000 0.500000
vt 0.625000 0.750000
vt 0.625000 0.500000
vt 0.625000 0.750000
vt 0.625000 0.500000
vt 0.625000 0.750000
vt 0.625000 0.500000
vt 0.625000 0.750000
vt 0.000000 0.000000
vt 0.000000 0.000000
vt 0.000000 0.000000
vt 0.000000 0.000000
vt 0.000000 0.000000
vt 0.000000 0.000000
vt 0.000000 0.000000
vt 0.000000 0.000000
vt 0.000000 0.000000
vt 0.000000 0.000000
vt 0.000000 0.000000
vt 0.000000 0.000000
vt 0.000000 0.000000
s 0
f 2/4/1 3/6/1 1/1/1
f 4/8/2 7/12/2 3/6/2
f 8/14/3 5/10/3 7/12/3
f 6/11/4 1/2/4 5/10/4
f 30/40/5 7/12/5 5/10/5
f 2/4/6 10/17/6 4/8/6
f 9/15/7 16/26/7 13/20/7
f 2/5/6 12/19/6 9/15/6
f 4/8/6 11/18/6 8/14/6
f 19/29/6 33/43/6 12/19/6
f 14/23/6 16/26/6 15/25/6
f 10/17/8 15/25/8 11/18/8
f 11/18/9 16/26/9 12/19/9
f 9/16/10 14/24/10 10/17/10
f 18/28/11 24/34/11 20/30/11
f 11/18/6 17/27/6 8/14/6
f 12/19/6 18/28/6 20/30/6
f 21/31/6 24/34/6 22/32/6
f 19/29/12 21/31/12 17/27/12
f 20/30/1 23/33/1 19/29/1
f 30/40/5 5/9/5 1/3/5
f 30/40/13 26/36/13 27/37/13
f 29/39/14 25/35/14 26/36/14
f 30/40/1 25/35/1 28/38/1
f 27/37/6 18/28/6 6/11/6
f 26/36/15 31/41/15 27/37/15
f 26/36/16 25/35/16 31/41/16
f 27/37/3 22/32/3 18/28/3
f 25/35/3 17/27/3 21/31/3
f 2/4/1 4/8/1 3/6/1
f 4/8/2 8/14/2 7/12/2
f 8/14/3 6/11/3 5/10/3
f 6/11/4 2/5/4 1/2/4
f 30/40/5 28/38/5 7/12/5
f 2/4/6 9/16/6 10/17/6
f 9/15/7 12/19/7 16/26/7
f 2/5/6 6/11/6 12/19/6
f 4/8/6 10/17/6 11/18/6
f 12/19/6 20/30/6 19/29/6
f 14/23/6 13/21/6 16/26/6
f 10/17/8 14/24/8 15/25/8
f 11/18/9 15/25/9 16/26/9
f 9/16/10 13/22/10 14/24/10
f 18/28/11 22/32/11 24/34/11
f 11/18/6 19/29/6 17/27/6
f 12/19/6 6/11/6 18/28/6
f 21/31/6 23/33/6 24/34/6
f 19/29/12 23/33/12 21/31/12
f 20/30/1 24/34/1 23/33/1
f 32/42/6 19/29/6 11/18/6
f 3/7/5 7/13/5 28/38/5
f 29/39/5 3/7/5 28/38/5
f 29/39/5 30/40/5 1/3/5
f 30/40/13 29/39/13 26/36/13
f 29/39/14 28/38/14 25/35/14
f 30/40/1 27/37/1 25/35/1
f 6/11/6 8/14/6 25/35/6
f 8/14/6 17/27/6 25/35/6
f 25/35/6 27/37/6 6/11/6
f 27/37/3 31/41/3 22/32/3
f 21/31/3 22/32/3 31/41/3
f 31/41/3 25/35/3 21/31/3
f 33/43/6 11/18/6 12/19/6
f 36/46/5 29/39/5 1/3/5
f 29/39/5 35/45/5 3/7/5
f 3/7/5 36/46/5 1/3/5
f 33/43/3 35/45/3 32/42/3
f 32/42/17 37/47/17 34/44/17
f 34/44/18 36/46/18 33/43/18
f 19/29/6 34/44/6 33/43/6
f 32/42/6 34/44/6 19/29/6
f 33/43/6 32/42/6 11/18/6
f 36/46/5 37/47/5 29/39/5
f 29/39/5 37/47/5 35/45/5
f 3/7/5 35/45/5 36/46/5
f 33/43/3 36/46/3 35/45/3
f 32/42/17 35/45/17 37/47/17
f 34/44/18 37/47/18 36/46/18
