# Blender 3.3.1
# www.blender.org
mtllib table5.mtl
o entity0_brush13
v 2.897780 -0.519372 4.369193
v 2.897780 1.038745 4.369193
v 2.897780 -0.519372 -7.057002
v 2.897780 1.038745 -7.057002
v 9.130250 -0.519372 4.369193
v 9.130250 1.038745 4.369193
v 9.130250 -0.519372 -0.824533
v 9.130250 1.038745 -0.824533
v -8.009043 -0.519373 -1.343904
v -8.009043 0.000000 -1.343904
v -8.009043 -0.519373 -7.057002
v -8.009043 0.000000 -7.057002
v -5.931553 -0.519373 -1.343904
v -5.931553 0.000000 -1.343904
v -5.931553 -0.519373 -7.057002
v -5.931553 0.000000 -7.057002
v -5.931553 0.000000 -4.979512
v -5.931553 0.000000 -7.057002
v -5.931553 -0.519373 -4.979512
v -5.931553 -0.519373 -7.057002
v -2.815318 1.038740 -4.979512
v -2.815318 1.038740 -7.057002
v -2.815318 -0.519373 -4.979512
v -2.815318 -0.519373 -7.057002
v -2.815318 -0.519373 -4.979512
v -2.815318 1.038745 -4.979512
v -2.815318 -0.519373 -7.057002
v -2.815318 1.038745 -7.057002
v -1.776572 -0.519373 -4.979512
v -1.776572 1.038745 -4.979512
v -1.776572 -0.519373 -7.057002
v -1.776572 1.038745 -7.057002
v -1.776572 -0.519373 2.291704
v -1.776572 1.038745 2.291704
v -1.776572 -0.519373 -7.057002
v -1.776572 1.038745 -7.057002
v 0.300918 -0.519373 2.291704
v 0.300918 1.038745 2.291704
v 0.300918 -0.519373 -7.057002
v 0.300918 1.038745 -7.057002
v -2.295945 -0.519373 -1.343904
v -2.295945 2.596863 -1.343904
v -2.295945 -0.519373 -4.979512
v -2.295945 2.596863 -4.979512
v -1.776572 -0.519373 -1.343904
v -1.776572 2.596863 -1.343904
v -1.776572 -0.519373 -4.979512
v -1.776572 2.596863 -4.979512
v -8.009043 -0.519373 2.291704
v -8.009043 0.000000 2.291704
v -8.009043 -0.519373 -1.343904
v -8.009043 0.000000 -1.343904
v -1.776572 -0.519373 2.291704
v -1.776572 0.000000 2.291704
v -1.776572 -0.519373 -1.343904
v -1.776572 0.000000 -1.343904
v -8.009043 -0.519373 7.485429
v -8.009043 0.000000 7.485429
v -8.009043 -0.519373 2.291704
v -8.009043 0.000000 2.291704
v -3.334690 -0.519373 7.485429
v -3.334690 0.000000 7.485429
v -3.334690 -0.519373 2.291704
v -3.334690 0.000000 2.291704
v -1.257200 -0.519373 3.849822
v -1.257200 3.116235 3.849822
v -1.257200 -0.519373 2.291704
v -1.257200 3.116235 2.291704
v 0.300918 -0.519373 3.849822
v 0.300918 3.116235 3.849822
v 0.300918 -0.519373 2.291704
v 0.300918 3.116235 2.291704
v -1.257200 -0.519373 7.485429
v -1.257200 3.116235 7.485429
v -1.257200 -0.519373 5.927311
v -1.257200 3.116235 5.927311
v 0.300918 -0.519373 7.485429
v 0.300918 3.116235 7.485429
v 0.300918 -0.519373 5.927311
v 0.300918 3.116235 5.927311
v -8.009043 -0.519373 9.562920
v -8.009043 0.000000 9.562920
v -8.009043 -0.519373 7.485429
v -8.009043 0.000000 7.485429
v 9.130250 -0.519373 9.562920
v 9.130250 0.000000 9.562920
v 9.130250 -0.519373 7.485429
v 9.130250 0.000000 7.485429
v 2.897780 0.000000 7.485429
v 2.897780 -0.519373 7.485429
v 2.897780 1.038794 4.369194
v 2.897780 -0.519373 4.369194
v 9.130250 0.000000 7.485428
v 9.130250 -0.519373 7.485429
v 9.130250 1.038745 4.369193
v 9.130250 -0.519373 4.369194
v 0.300918 -0.519373 7.485429
v 0.300918 1.038745 7.485429
v 0.300918 -0.519373 -7.057002
v 0.300918 1.038745 -7.057002
v 2.897780 -0.519373 7.485429
v 2.897780 1.038745 7.485429
v 2.897780 -0.519373 -7.057002
v 2.897780 1.038745 -7.057002
v 9.130250 -0.519373 9.562920
v 9.130250 1.038745 9.562920
v 9.130250 -0.519373 -0.824532
v 9.130250 1.038745 -0.824532
v 10.168994 -0.519373 9.562920
v 10.168994 1.038745 9.562920
v 10.168994 -0.519373 0.214213
v 10.168994 1.038745 0.214213
v 4.455898 1.038745 -3.421394
v 4.455898 1.038745 -1.863276
v 4.455818 2.596862 -3.421315
v 5.494643 1.038745 -4.460140
v 5.494643 2.596862 -4.460139
v 4.455702 2.596802 -1.863276
v 5.494715 3.116317 -2.902335
v 5.494562 3.116228 -2.901917
v 6.014016 2.596926 -1.863276
v 6.014016 1.038745 -1.863276
v 6.014136 2.596986 -1.863276
v 5.494847 3.116236 -2.901815
v 6.014164 2.596863 -1.863426
v 7.052761 1.038745 -2.902022
v 7.052760 2.596932 -2.902021
v 7.052762 2.596862 -2.902021
v -8.009043 -0.519373 -7.057002
v -8.009043 2.596863 -7.057002
v -8.009043 -0.519373 -7.576374
v -8.009043 2.596863 -7.576374
v 0.820291 -0.519373 -7.057002
v 0.820291 2.596863 -7.057002
v 0.820291 -0.519373 -7.576374
v 0.820291 2.596863 -7.576374
v -8.009043 -0.519373 -7.576374
v -8.009043 1.558118 -7.576374
v -8.009043 -0.519373 -9.134492
v -8.009043 1.558118 -9.134492
v -0.737827 -0.519373 -7.576374
v -0.737827 1.558118 -7.576374
v -0.737827 -0.519373 -9.134492
v -0.737827 1.558118 -9.134492
v -8.009043 -0.519373 -9.134492
v -8.009043 2.596863 -9.134492
v -8.009043 -0.519373 -9.653864
v -8.009043 2.596863 -9.653864
v 0.820291 -0.519373 -9.134492
v 0.820291 2.596863 -9.134492
v 0.820291 -0.519373 -9.653864
v 0.820291 2.596863 -9.653864
v 0.820291 -0.519373 -7.057002
v 0.820291 2.596863 -7.057002
v 0.820291 -0.519373 -9.653864
v 0.820291 2.596863 -9.653864
v 1.339663 -0.519373 -7.057002
v 1.339663 2.596863 -7.057002
v 1.339663 -0.519373 -9.653864
v 1.339663 2.596863 -9.653864
v -2.679245 -0.519373 2.291704
v -2.679245 -0.519373 7.485429
v -2.679245 0.223695 7.485429
v -2.679245 0.223695 2.291704
vn -1.0000 -0.0000 -0.0000
vn -0.0000 -1.0000 -0.0000
vn -0.0000 -0.0000 1.0000
vn -0.0000 1.0000 -0.0000
vn 0.7071 -0.0000 -0.7071
vn 1.0000 -0.0000 -0.0000
vn -0.0000 -0.0000 -1.0000
vn -0.3162 0.9487 -0.0000
vn -0.3230 0.9464 -0.0000
vn -0.0000 0.9487 0.3162
vn -0.7071 -0.0000 -0.7071
vn -0.3016 0.9045 -0.3016
vn 0.3016 0.9045 -0.3016
vn 0.7061 0.0201 -0.7078
vn -1.0000 -0.0001 -0.0001
vn -0.4472 0.8944 -0.0000
vn 0.3015 0.9046 0.3014
vn -0.4133 0.9095 0.0442
vn -0.0914 0.9802 0.1755
vn 0.8105 0.5732 -0.1209
vn 0.7096 0.0150 0.7045
vn 0.5789 -0.5743 0.5788
vn 0.7071 -0.0000 0.7071
vn -1.0000 -0.0001 -0.0000
vn -0.0001 0.8944 0.4472
vn -0.0000 0.0001 1.0000
vn 0.5757 -0.5769 0.5795
vn -0.2101 0.8290 0.5182
vn -0.3667 0.7457 0.5563
vt 1.000000 1.000000
vt 0.000000 0.000000
vt 1.000000 0.000000
vt 1.000000 1.000000
vt 1.000000 0.000000
vt 0.000000 0.000000
vt 1.000000 1.000000
vt 1.000000 1.000000
vt 1.000000 0.000000
vt 0.000000 0.000000
vt 1.000000 0.000000
vt 0.000000 0.000000
vt 1.000000 1.000000
vt 0.000000 0.000000
vt 1.000000 1.000000
vt 1.000000 0.000000
vt 1.000000 1.000000
vt 1.000000 0.000000
vt 0.000000 0.000000
vt 1.000000 0.000000
vt 1.000000 1.000000
vt 0.000000 0.000000
vt 1.000000 0.000000
vt 1.000000 1.000000
vt 1.000000 0.000000
vt 0.000000 0.000000
vt 1.000000 1.000000
vt 1.000000 1.000000
vt 1.000000 0.000000
vt 0.000000 0.000000
vt 1.000000 0.000000
vt 0.000000 0.000000
vt 1.000000 1.000000
vt 0.000000 0.000000
vt 1.000000 1.000000
vt 1.000000 0.000000
vt 1.000000 1.000000
vt 1.000000 0.000000
vt 0.000000 0.000000
vt 1.000000 0.000000
vt 1.000000 1.000000
vt 1.000000 0.000000
vt 0.000000 0.000000
vt 1.000000 0.000000
vt 0.000000 0.000000
vt 1.000000 1.000000
vt 1.000000 0.000000
vt 1.000000 1.000000
vt 1.000000 0.000000
vt 0.000000 0.000000
vt 1.000000 0.000000
vt 0.000000 0.000000
vt 1.000000 1.000000
vt 1.000000 1.000000
vt 0.000000 0.000000
vt 1.000000 1.000000
vt 1.000000 0.000000
vt 0.000000 0.000000
vt 1.000000 0.000000
vt 1.000000 1.000000
vt 1.000000 0.000000
vt 1.000000 1.000000
vt 1.000000 0.000000
vt 0.000000 0.000000
vt 0.000000 0.000000
vt 1.000000 1.000000
vt 1.000000 0.000000
vt 0.000000 0.000000
vt 1.000000 0.000000
vt 1.000000 1.000000
vt 1.000000 1.000000
vt 1.000000 0.000000
vt 0.000000 0.000000
vt 1.000000 0.000000
vt 0.000000 0.000000
vt 1.000000 1.000000
vt 1.000000 0.000000
vt 0.000000 0.000000
vt 1.000000 1.000000
vt 1.000000 1.000000
vt 1.000000 1.000000
vt 0.000000 0.000000
vt 1.000000 0.000000
vt 1.000000 1.000000
vt 1.000000 0.000000
vt 0.000000 0.000000
vt 1.000000 1.000000
vt 1.000000 1.000000
vt 1.000000 0.000000
vt 0.000000 0.000000
vt 1.000000 0.000000
vt 0.000000 0.000000
vt 1.000000 1.000000
vt 0.000000 0.000000
vt 1.000000 1.000000
vt 1.000000 0.000000
vt 1.000000 1.000000
vt 1.000000 0.000000
vt 0.000000 0.000000
vt 1.000000 0.000000
vt 1.000000 0.000000
vt 1.000000 1.000000
vt 1.000000 0.000000
vt 0.000000 0.000000
vt 0.000000 0.000000
vt 1.000000 1.000000
vt 1.000000 0.000000
vt 0.000000 0.000000
vt 1.000000 0.000000
vt 1.000000 1.000000
vt 1.000000 1.000000
vt 1.000000 0.000000
vt 0.000000 0.000000
vt 1.000000 0.000000
vt 0.000000 0.000000
vt 1.000000 1.000000
vt 1.000000 0.000000
vt 0.000000 0.000000
vt 1.000000 1.000000
vt 1.000000 1.000000
vt 1.000000 0.000000
vt 1.000000 1.000000
vt 1.000000 0.000000
vt 0.000000 0.000000
vt 1.000000 1.000000
vt 1.000000 0.000000
vt 0.000000 0.000000
vt 1.000000 0.000000
vt 0.000000 0.000000
vt 1.000000 1.000000
vt 0.000000 0.000000
vt 1.000000 1.000000
vt 1.000000 0.000000
vt 1.000000 0.000000
vt 0.000000 0.000000
vt 1.000000 1.000000
vt 0.000000 0.000000
vt 1.000000 0.000000
vt 1.000000 1.000000
vt 1.000000 1.000000
vt 1.000000 1.000000
vt 0.000000 0.000000
vt 1.000000 0.000000
vt 1.000000 1.000000
vt 1.000000 0.000000
vt 0.000000 0.000000
vt 1.000000 1.000000
vt 1.000000 1.000000
vt 1.000000 0.000000
vt 0.000000 0.000000
vt 1.000000 0.000000
vt 1.000000 1.000000
vt 0.000000 0.000000
vt 0.000000 0.000000
vt 1.000000 0.000000
vt 1.000000 1.000000
vt 1.000000 0.000000
vt 1.000000 0.000000
vt 1.000000 0.000000
vt 0.000000 0.000000
vt 1.000000 1.000000
vt 1.000000 0.000000
vt 1.000000 1.000000
vt 1.000000 0.000000
vt 0.000000 0.000000
vt 1.000000 0.000000
vt 0.000000 0.000000
vt 1.000000 1.000000
vt 1.000000 1.000000
vt 1.000000 0.000000
vt 0.000000 0.000000
vt 0.000000 0.000000
vt 1.000000 0.000000
vt 1.000000 1.000000
vt 1.000000 0.000000
vt 0.000000 0.000000
vt 1.000000 1.000000
vt 1.000000 1.000000
vt 1.000000 0.000000
vt 0.000000 0.000000
vt 1.000000 1.000000
vt 1.000000 0.000000
vt 1.000000 1.000000
vt 1.000000 0.000000
vt 0.000000 0.000000
vt 1.000000 0.000000
vt 0.000000 0.000000
vt 1.000000 1.000000
vt 1.000000 1.000000
vt 1.000000 0.000000
vt 0.000000 0.000000
vt 0.000000 0.000000
vt 1.000000 0.000000
vt 1.000000 1.000000
vt 1.000000 0.000000
vt 0.000000 0.000000
vt 1.000000 1.000000
vt 1.000000 1.000000
vt 1.000000 0.000000
vt 1.000000 1.000000
vt 1.000000 0.000000
vt 0.000000 0.000000
vt 1.000000 1.000000
vt 1.000000 0.000000
vt 0.000000 0.000000
vt 1.000000 0.000000
vt 0.000000 0.000000
vt 1.000000 1.000000
vt 0.000000 0.000000
vt 1.000000 1.000000
vt 1.000000 0.000000
vt 1.000000 0.000000
vt 0.000000 0.000000
vt 1.000000 1.000000
vt 0.000000 0.000000
vt 1.000000 0.000000
vt 1.000000 1.000000
vt 1.000000 1.000000
vt 1.000000 0.000000
vt 0.000000 0.000000
vt 0.000000 0.000000
vt 1.000000 0.000000
vt 0.000000 0.000000
vt 1.000000 0.000000
vt 1.000000 1.000000
vt 0.000000 0.000000
vt 1.000000 0.000000
vt 1.000000 1.000000
vt 0.000000 0.000000
vt 1.000000 0.000000
vt 1.000000 1.000000
vt 0.000000 0.000000
vt 1.000000 0.000000
vt 1.000000 1.000000
vt 1.000000 1.000000
vt 0.000000 0.000000
vt 1.000000 0.000000
vt 1.000000 1.000000
vt 1.000000 1.000000
vt 0.000000 0.000000
vt 1.000000 0.000000
vt 1.000000 1.000000
vt 1.000000 0.000000
vt 0.000000 0.000000
vt 1.000000 1.000000
vt 1.000000 1.000000
vt 1.000000 0.000000
vt 0.000000 0.000000
vt 1.000000 0.000000
vt 0.000000 0.000000
vt 1.000000 1.000000
vt 0.000000 0.000000
vt 1.000000 1.000000
vt 1.000000 0.000000
vt 1.000000 1.000000
vt 1.000000 0.000000
vt 0.000000 0.000000
vt 1.000000 0.000000
vt 1.000000 1.000000
vt 1.000000 0.000000
vt 0.000000 0.000000
vt 1.000000 0.000000
vt 0.000000 0.000000
vt 1.000000 1.000000
vt 0.000000 0.000000
vt 1.000000 0.000000
vt 1.000000 1.000000
vt 1.000000 1.000000
vt 1.000000 0.000000
vt 1.000000 1.000000
vt 1.000000 0.000000
vt 0.000000 0.000000
vt 0.000000 0.000000
vt 1.000000 1.000000
vt 1.000000 0.000000
vt 1.000000 0.000000
vt 0.000000 0.000000
vt 1.000000 1.000000
vt 1.000000 0.000000
vt 0.000000 0.000000
vt 1.000000 1.000000
vt 1.000000 1.000000
vt 1.000000 0.000000
vt 0.000000 0.000000
vt 1.000000 0.000000
vt 0.000000 0.000000
vt 1.000000 1.000000
vt 0.000000 0.000000
vt 1.000000 0.000000
vt 1.000000 1.000000
vt 1.000000 1.000000
vt 0.000000 0.000000
vt 1.000000 0.000000
vt 1.000000 1.000000
vt 0.000000 0.000000
vt 1.000000 0.000000
vt 1.000000 1.000000
vt 0.000000 0.000000
vt 1.000000 0.000000
vt 0.000000 0.000000
vt 1.000000 1.000000
vt 1.000000 0.000000
vt 1.000000 0.000000
vt 0.000000 0.000000
vt 1.000000 0.000000
vt 1.000000 1.000000
vt 1.000000 0.000000
vt 0.000000 0.000000
vt 0.000000 0.000000
vt 1.000000 1.000000
vt 1.000000 0.000000
vt 0.000000 0.000000
vt 1.000000 1.000000
vt 1.000000 0.000000
vt 0.000000 0.000000
vt 1.000000 0.000000
vt 1.000000 1.000000
vt 0.000000 0.000000
vt 1.000000 0.000000
vt 1.000000 1.000000
vt 1.000000 1.000000
vt 1.000000 0.000000
vt 0.000000 0.000000
vt 1.000000 1.000000
vt 0.000000 0.000000
vt 1.000000 0.000000
vt 1.000000 1.000000
vt 0.000000 0.000000
vt 1.000000 1.000000
vt 1.000000 0.000000
vt 1.000000 0.000000
vt 0.000000 0.000000
vt 1.000000 1.000000
vt 1.000000 1.000000
vt 1.000000 0.000000
vt 0.000000 0.000000
vt 1.000000 1.000000
vt 1.000000 0.000000
vt 0.000000 0.000000
vt 1.000000 0.000000
vt 1.000000 1.000000
vt 1.000000 0.000000
vt 0.000000 0.000000
vt 1.000000 1.000000
vt 0.000000 0.000000
vt 1.000000 0.000000
vt 1.000000 1.000000
vt 0.000000 0.000000
vt 1.000000 1.000000
vt 1.000000 0.000000
vt 1.000000 0.000000
vt 0.000000 0.000000
vt 1.000000 1.000000
vt 1.000000 1.000000
vt 1.000000 0.000000
vt 0.000000 0.000000
vt 1.000000 1.000000
vt 1.000000 0.000000
vt 0.000000 0.000000
vt 1.000000 0.000000
vt 1.000000 1.000000
vt 1.000000 0.000000
vt 0.000000 0.000000
vt 1.000000 1.000000
vt 0.000000 0.000000
vt 1.000000 0.000000
vt 1.000000 1.000000
vt 0.000000 0.000000
vt 1.000000 1.000000
vt 1.000000 0.000000
vt 1.000000 0.000000
vt 0.000000 0.000000
vt 1.000000 1.000000
vt 1.000000 1.000000
vt 1.000000 0.000000
vt 0.000000 0.000000
vt 1.000000 1.000000
vt 1.000000 0.000000
vt 0.000000 0.000000
vt 1.000000 0.000000
vt 1.000000 1.000000
vt 1.000000 0.000000
vt 0.000000 0.000000
vt 1.000000 1.000000
vt 1.000000 0.000000
vt 0.000000 0.000000
vt 1.000000 1.000000
vt 1.000000 1.000000
vt 1.000000 0.000000
vt 0.000000 0.000000
vt 0.000000 0.000000
vt 1.000000 0.000000
vt 1.000000 1.000000
vt 1.000000 1.000000
vt 1.000000 0.000000
vt 0.000000 0.000000
vt 0.000000 0.000000
vt 1.000000 1.000000
vt 1.000000 0.000000
vt 1.000000 0.000000
vt 0.000000 0.000000
vt 1.000000 0.000000
vt 1.000000 1.000000
vt 0.000000 0.000000
vt 1.000000 1.000000
vt 1.000000 0.000000
vt 0.000000 0.000000
vt 1.000000 0.000000
s 0
usemtl worldspawn.001
f 2/2/1 4/9/1 3/7/1
f 2/2/1 3/5/1 1/1/1
f 3/6/2 7/18/2 5/13/2
f 3/6/2 5/11/2 1/1/2
f 5/12/3 6/16/3 2/4/3
f 5/12/3 2/3/3 1/1/3
f 6/14/4 8/20/4 4/8/4
f 6/14/4 4/9/4 2/4/4
f 4/10/5 8/20/5 7/17/5
f 4/10/5 7/18/5 3/7/5
f 7/19/6 8/20/6 6/15/6
f 7/19/6 6/16/6 5/13/6
f 10/22/1 12/29/1 11/27/1
f 10/22/1 11/25/1 9/21/1
f 11/26/2 15/38/2 13/33/2
f 11/26/2 13/31/2 9/21/2
f 13/32/3 14/36/3 10/24/3
f 13/32/3 10/23/3 9/21/3
f 14/34/4 16/40/4 12/28/4
f 14/34/4 12/29/4 10/24/4
f 12/30/7 16/40/7 15/37/7
f 12/30/7 15/38/7 11/27/7
f 15/39/6 16/40/6 14/35/6
f 15/39/6 14/36/6 13/33/6
f 24/58/7 20/49/7 18/46/7
f 24/58/7 18/44/7 22/54/7
f 18/45/8 17/42/8 21/53/8
f 18/45/8 21/51/8 22/54/8
f 21/52/6 23/57/6 24/60/6
f 21/52/6 24/59/6 22/54/6
f 23/55/2 19/47/2 20/48/2
f 23/55/2 20/49/2 24/60/2
f 20/50/1 19/47/1 17/41/1
f 20/50/1 17/42/1 18/46/1
f 17/43/3 19/47/3 23/56/3
f 17/43/3 23/57/3 21/53/3
f 28/68/4 26/63/4 30/76/4
f 28/68/4 30/74/4 32/80/4
f 30/75/6 29/72/6 31/79/6
f 30/75/6 31/77/6 32/80/6
f 31/78/7 27/67/7 28/70/7
f 31/78/7 28/69/7 32/80/7
f 27/65/1 25/61/1 26/62/1
f 27/65/1 26/63/1 28/70/1
f 26/64/3 25/61/3 29/71/3
f 26/64/3 29/72/3 30/76/3
f 29/73/2 25/61/2 27/66/2
f 29/73/2 27/67/2 31/79/2
f 34/82/1 36/89/1 35/87/1
f 34/82/1 35/85/1 33/81/1
f 35/86/2 39/98/2 37/93/2
f 35/86/2 37/91/2 33/81/2
f 37/92/3 38/96/3 34/84/3
f 37/92/3 34/83/3 33/81/3
f 38/94/4 40/100/4 36/88/4
f 38/94/4 36/89/4 34/84/4
f 36/90/7 40/100/7 39/97/7
f 36/90/7 39/98/7 35/87/7
f 39/99/6 40/100/6 38/95/6
f 39/99/6 38/96/6 37/93/6
f 44/108/4 42/103/4 46/116/4
f 44/108/4 46/114/4 48/120/4
f 46/115/6 45/112/6 47/119/6
f 46/115/6 47/117/6 48/120/6
f 47/118/7 43/107/7 44/110/7
f 47/118/7 44/109/7 48/120/7
f 43/105/1 41/101/1 42/102/1
f 43/105/1 42/103/1 44/110/1
f 42/104/3 41/101/3 45/111/3
f 42/104/3 45/112/3 46/116/3
f 45/113/2 41/101/2 43/106/2
f 45/113/2 43/107/2 47/119/2
f 55/137/7 51/126/7 52/130/7
f 55/137/7 52/128/7 56/140/7
f 52/129/4 50/123/4 54/136/4
f 52/129/4 54/134/4 56/140/4
f 54/135/6 53/133/6 55/139/6
f 54/135/6 55/138/6 56/140/6
f 53/131/2 49/121/2 51/125/2
f 53/131/2 51/126/2 55/139/2
f 51/127/1 49/121/1 50/122/1
f 51/127/1 50/123/1 52/130/1
f 50/124/3 49/121/3 53/132/3
f 50/124/3 53/133/3 54/136/3
f 58/142/1 60/149/1 59/147/1
f 58/142/1 59/145/1 57/141/1
f 59/146/2 63/157/2 61/152/2
f 59/146/2 61/151/2 57/141/2
f 61/153/3 62/155/3 58/144/3
f 61/153/3 58/143/3 57/141/3
f 62/154/4 64/158/4 60/148/4
f 62/154/4 60/149/4 58/144/4
f 60/150/7 64/158/7 63/156/7
f 60/150/7 63/157/7 59/147/7
f 162/405/6 164/408/6 163/406/6
f 62/154/9 164/408/9 64/158/9
f 70/172/6 69/170/6 71/177/6
f 70/172/6 71/175/6 72/178/6
f 71/176/7 67/164/7 68/168/7
f 71/176/7 68/166/7 72/178/7
f 68/167/4 66/162/4 70/174/4
f 68/167/4 70/173/4 72/178/4
f 66/160/3 65/159/3 69/169/3
f 66/160/3 69/170/3 70/174/3
f 69/171/2 65/159/2 67/163/2
f 69/171/2 67/164/2 71/177/2
f 67/165/1 65/159/1 66/161/1
f 67/165/1 66/162/1 68/168/1
f 78/192/6 77/190/6 79/197/6
f 78/192/6 79/195/6 80/198/6
f 79/196/7 75/184/7 76/188/7
f 79/196/7 76/186/7 80/198/7
f 76/187/4 74/182/4 78/194/4
f 76/187/4 78/193/4 80/198/4
f 74/180/3 73/179/3 77/189/3
f 74/180/3 77/190/3 78/194/3
f 77/191/2 73/179/2 75/183/2
f 77/191/2 75/184/2 79/197/2
f 75/185/1 73/179/1 74/181/1
f 75/185/1 74/182/1 76/188/1
f 87/215/7 83/204/7 84/208/7
f 87/215/7 84/206/7 88/218/7
f 84/207/4 82/201/4 86/214/4
f 84/207/4 86/212/4 88/218/4
f 86/213/6 85/211/6 87/217/6
f 86/213/6 87/216/6 88/218/6
f 85/209/2 81/199/2 83/203/2
f 85/209/2 83/204/2 87/217/2
f 83/205/1 81/199/1 82/200/1
f 83/205/1 82/201/1 84/208/1
f 82/202/3 81/199/3 85/210/3
f 82/202/3 85/211/3 86/214/3
f 96/236/7 92/227/7 95/235/7
f 92/226/7 91/224/7 95/235/7
f 91/223/10 93/230/10 95/235/10
f 93/229/6 94/233/6 96/238/6
f 93/229/6 96/237/6 95/235/6
f 94/232/2 90/222/2 92/228/2
f 94/232/2 92/227/2 96/238/2
f 90/221/1 89/219/1 91/225/1
f 90/221/1 91/224/1 92/228/1
f 89/220/10 93/230/10 91/225/10
f 89/220/3 94/233/3 93/231/3
f 89/220/3 90/222/3 94/234/3
f 98/240/1 100/247/1 99/245/1
f 98/240/1 99/243/1 97/239/1
f 99/244/2 103/256/2 101/251/2
f 99/244/2 101/249/2 97/239/2
f 101/250/3 102/254/3 98/242/3
f 101/250/3 98/241/3 97/239/3
f 102/252/4 104/258/4 100/246/4
f 102/252/4 100/247/4 98/242/4
f 100/248/7 104/258/7 103/255/7
f 100/248/7 103/256/7 99/245/7
f 103/257/6 104/258/6 102/253/6
f 103/257/6 102/254/6 101/251/6
f 107/265/1 105/260/1 106/264/1
f 107/265/1 106/262/1 108/268/1
f 106/263/4 110/271/4 112/278/4
f 106/263/4 112/276/4 108/268/4
f 112/277/5 111/275/5 107/267/5
f 112/277/5 107/266/5 108/268/5
f 111/273/2 109/269/2 105/259/2
f 111/273/2 105/260/2 107/267/2
f 105/261/3 109/269/3 110/270/3
f 105/261/3 110/271/3 106/264/3
f 110/272/6 109/269/6 111/274/6
f 110/272/6 111/275/6 112/278/6
f 116/288/11 113/279/11 115/287/11
f 116/288/11 115/285/11 117/291/11
f 115/286/12 119/296/12 117/291/12
f 119/295/13 127/316/13 117/291/13
f 127/315/14 128/319/14 117/291/14
f 128/318/5 116/289/5 117/291/5
f 128/318/5 126/314/5 116/290/5
f 126/312/2 122/303/2 114/282/2
f 126/312/2 114/283/2 113/281/2
f 126/312/2 113/279/2 116/290/2
f 113/280/15 118/293/15 115/287/15
f 118/292/16 119/296/16 115/287/16
f 123/304/17 127/316/17 119/297/17
f 118/292/18 120/299/18 119/297/18
f 120/298/19 124/307/19 119/297/19
f 124/308/20 123/305/20 119/297/20
f 123/304/21 128/319/21 127/317/21
f 123/304/22 125/311/22 128/320/22
f 125/309/23 122/303/23 126/313/23
f 125/309/23 126/314/23 128/320/23
f 114/284/24 118/293/24 113/281/24
f 121/300/25 120/299/25 118/294/25
f 114/284/26 122/303/26 125/310/26
f 114/284/27 125/311/27 123/306/27
f 114/284/3 123/305/3 121/301/3
f 114/284/3 121/302/3 118/294/3
f 124/308/28 120/299/28 121/301/28
f 124/308/29 121/302/29 123/306/29
f 131/325/2 135/338/2 133/333/2
f 131/325/2 133/331/2 129/321/2
f 133/332/3 134/335/3 130/324/3
f 133/332/3 130/322/3 129/321/3
f 130/323/1 132/330/1 131/327/1
f 130/323/1 131/326/1 129/321/1
f 132/328/7 136/340/7 135/337/7
f 132/328/7 135/338/7 131/327/7
f 135/339/6 136/340/6 134/334/6
f 135/339/6 134/335/6 133/333/6
f 134/336/4 136/340/4 132/329/4
f 134/336/4 132/330/4 130/324/4
f 139/345/2 143/358/2 141/353/2
f 139/345/2 141/351/2 137/341/2
f 141/352/3 142/355/3 138/344/3
f 141/352/3 138/342/3 137/341/3
f 138/343/1 140/350/1 139/347/1
f 138/343/1 139/346/1 137/341/1
f 140/348/7 144/360/7 143/357/7
f 140/348/7 143/358/7 139/347/7
f 143/359/6 144/360/6 142/354/6
f 143/359/6 142/355/6 141/353/6
f 142/356/4 144/360/4 140/349/4
f 142/356/4 140/350/4 138/344/4
f 147/365/2 151/378/2 149/373/2
f 147/365/2 149/371/2 145/361/2
f 149/372/3 150/375/3 146/364/3
f 149/372/3 146/362/3 145/361/3
f 146/363/1 148/370/1 147/367/1
f 146/363/1 147/366/1 145/361/1
f 148/368/7 152/380/7 151/377/7
f 148/368/7 151/378/7 147/367/7
f 151/379/6 152/380/6 150/374/6
f 151/379/6 150/375/6 149/373/6
f 150/376/4 152/380/4 148/369/4
f 150/376/4 148/370/4 146/364/4
f 157/391/3 158/395/3 154/384/3
f 157/391/3 154/382/3 153/381/3
f 154/383/1 156/389/1 155/387/1
f 154/383/1 155/385/1 153/381/1
f 155/386/2 159/399/2 157/393/2
f 155/386/2 157/392/2 153/381/2
f 159/397/6 160/400/6 158/394/6
f 159/397/6 158/395/6 157/393/6
f 158/396/4 160/400/4 156/388/4
f 158/396/4 156/389/4 154/384/4
f 156/390/7 160/400/7 159/398/7
f 156/390/7 159/399/7 155/387/7
f 62/155/3 162/404/3 163/406/3
f 63/157/2 162/405/2 61/152/2
f 64/158/7 161/403/7 63/156/7
f 162/405/6 161/401/6 164/408/6
f 62/154/9 163/407/9 164/408/9
f 62/155/3 61/153/3 162/404/3
f 63/157/2 161/402/2 162/405/2
f 64/158/7 164/408/7 161/403/7
