# Blender 3.3.1
# www.blender.org
mtllib table7.mtl
o Cube.005
v -2.625775 -1.000000 -5.522881
v -6.032708 0.000000 9.030962
v -3.501741 -1.000000 -6.398847
v -6.032708 0.000000 -9.030962
v -3.501741 -1.000000 -4.646914
v 6.032708 0.000000 9.030962
v -4.377708 -1.000000 -5.522881
v 6.032708 0.000000 -9.030962
v 2.863230 0.000000 -3.918539
v 2.863230 0.000000 -6.725567
v 4.533278 0.000000 -3.918539
v 4.533278 0.000000 -6.725567
v -2.863229 0.000000 3.918539
v -2.863229 0.000000 6.725569
v -4.533278 0.000000 3.918539
v -4.533278 0.000000 6.725569
v 2.625774 -1.000000 5.522880
v 3.501741 -1.000000 6.398847
v 3.501741 -1.000000 4.646914
v 4.377708 -1.000000 5.522881
v -4.533278 -1.000000 6.725569
v -4.533278 -1.000000 3.918539
v -2.863229 -1.000000 6.725569
v -2.863229 -1.000000 3.918539
v 4.377708 0.000000 5.522881
v 3.501741 0.000000 4.646914
v 3.501741 0.000000 6.398847
v 2.625774 0.000000 5.522880
v -4.377708 0.000000 -5.522881
v -3.501741 0.000000 -4.646914
v -3.501741 0.000000 -6.398847
v -2.625775 0.000000 -5.522881
v 4.533278 -1.000000 -6.725567
v 4.533278 -1.000000 -3.918539
v 2.863230 -1.000000 -6.725567
v 2.863230 -1.000000 -3.918539
v 6.032708 -1.000000 -9.030962
v 6.032708 -1.000000 9.030962
v -6.032708 -1.000000 -9.030962
v -6.032708 -1.000000 9.030962
vn -0.0000 1.0000 -0.0000
vn -1.0000 -0.0000 -0.0000
vn -0.0000 -0.0000 -1.0000
vn -0.0000 -0.0000 1.0000
vn 1.0000 -0.0000 -0.0000
vn -0.7071 -0.0000 -0.7071
vn -0.7071 -0.0000 0.7071
vn 0.7071 -0.0000 0.7071
vn 0.7071 -0.0000 -0.7071
vt 0.000000 0.000000
vt 0.625000 0.000000
vt 0.000000 0.000000
vt 0.000000 0.000000
vt 0.000000 0.000000
vt 0.000000 0.000000
vt 0.625000 0.750000
vt 0.000000 0.000000
vt 0.000000 0.000000
vt 0.000000 0.000000
vt 0.000000 0.000000
vt 0.875000 0.500000
vt 0.000000 0.000000
vt 0.000000 0.000000
vt 0.000000 0.000000
vt 0.000000 0.000000
vt 0.875000 0.500000
vt 0.000000 0.000000
vt 0.625000 0.750000
vt 0.000000 0.000000
vt 0.625000 0.500000
vt 0.000000 0.000000
vt 0.000000 0.000000
vt 0.000000 0.000000
vt 0.000000 0.000000
vt 0.000000 0.000000
vt 0.000000 0.000000
vt 0.625000 0.500000
vt 0.625000 0.750000
vt 0.000000 0.000000
vt 0.875000 0.500000
vt 0.000000 0.000000
vt 0.000000 0.000000
vt 0.000000 0.000000
vt 0.000000 0.000000
vt 0.000000 0.000000
vt 0.000000 0.000000
vt 0.000000 0.000000
vt 0.000000 0.000000
vt 0.000000 0.000000
vt 0.000000 0.000000
vt 0.000000 0.000000
vt 0.000000 0.000000
vt 0.875000 0.500000
vt 0.000000 0.000000
vt 0.000000 0.000000
vt 0.000000 0.000000
vt 0.625000 0.750000
vt 0.000000 0.000000
vt 0.000000 0.000000
vt 0.625000 0.000000
vt 0.000000 0.000000
s 0
f 9/11/1 26/35/1 11/14/1
f 2/2/1 16/21/1 15/19/1
f 16/22/1 2/3/1 14/18/1
f 4/5/1 2/3/1 15/20/1
f 8/10/1 10/13/1 12/15/1
f 8/10/1 12/15/1 11/14/1
f 39/50/2 2/3/2 4/5/2
f 5/6/1 24/33/1 36/46/1
f 19/25/1 36/46/1 24/33/1
f 37/47/3 4/5/3 8/10/3
f 38/48/1 18/24/1 23/31/1
f 37/47/1 39/50/1 35/44/1
f 19/25/1 20/26/1 34/43/1
f 36/46/1 19/25/1 34/43/1
f 36/46/1 35/44/1 1/1/1
f 18/24/1 17/23/1 23/31/1
f 40/52/4 6/8/4 2/3/4
f 21/28/2 15/19/2 22/29/2
f 38/49/5 8/10/5 6/8/5
f 1/1/1 5/6/1 36/46/1
f 17/23/1 19/25/1 24/33/1
f 23/31/1 40/52/1 38/48/1
f 39/50/1 3/4/1 35/44/1
f 38/49/1 37/47/1 34/43/1
f 25/34/1 27/36/1 6/8/1
f 3/4/1 1/1/1 35/44/1
f 24/33/1 23/31/1 17/23/1
f 7/9/1 22/30/1 5/6/1
f 24/33/5 14/17/5 23/31/5
f 23/32/4 16/22/4 21/27/4
f 29/38/1 31/40/1 4/5/1
f 37/47/1 33/42/1 34/43/1
f 39/50/1 40/52/1 22/30/1
f 40/51/1 21/28/1 22/29/1
f 22/30/3 13/16/3 24/33/3
f 21/27/1 40/52/1 23/32/1
f 22/30/1 24/33/1 5/6/1
f 20/26/1 38/49/1 34/43/1
f 39/50/1 22/30/1 7/9/1
f 7/9/1 3/4/1 39/50/1
f 37/47/1 35/45/1 33/42/1
f 20/26/1 18/24/1 38/49/1
f 4/5/1 15/20/1 29/38/1
f 15/20/1 13/16/1 30/39/1
f 29/38/1 15/20/1 30/39/1
f 25/34/1 6/8/1 11/14/1
f 6/8/1 8/10/1 11/14/1
f 26/35/1 25/34/1 11/14/1
f 9/11/1 10/12/1 32/41/1
f 8/10/1 4/5/1 10/12/1
f 4/5/1 31/40/1 10/12/1
f 32/41/1 30/39/1 9/11/1
f 30/39/1 13/16/1 9/11/1
f 31/40/1 32/41/1 10/12/1
f 13/16/1 14/17/1 28/37/1
f 14/17/1 2/3/1 6/7/1
f 6/7/1 27/36/1 14/17/1
f 27/36/1 28/37/1 14/17/1
f 28/37/1 26/35/1 13/16/1
f 26/35/1 9/11/1 13/16/1
f 17/23/6 26/35/6 19/25/6
f 18/24/7 28/37/7 17/23/7
f 20/26/8 27/36/8 18/24/8
f 19/25/9 25/34/9 20/26/9
f 36/46/2 10/12/2 35/44/2
f 34/43/4 9/11/4 36/46/4
f 33/42/5 11/14/5 34/43/5
f 35/45/3 12/15/3 33/42/3
f 30/39/8 1/1/8 32/41/8
f 29/38/7 5/6/7 30/39/7
f 31/40/6 7/9/6 29/38/6
f 32/41/9 3/4/9 31/40/9
f 39/50/2 40/52/2 2/3/2
f 37/47/3 39/50/3 4/5/3
f 40/52/4 38/48/4 6/8/4
f 21/28/2 16/21/2 15/19/2
f 38/49/5 37/47/5 8/10/5
f 24/33/5 13/16/5 14/17/5
f 23/32/4 14/18/4 16/22/4
f 22/30/3 15/20/3 13/16/3
f 17/23/6 28/37/6 26/35/6
f 18/24/7 27/36/7 28/37/7
f 20/26/8 25/34/8 27/36/8
f 19/25/9 26/35/9 25/34/9
f 36/46/2 9/11/2 10/12/2
f 34/43/4 11/14/4 9/11/4
f 33/42/5 12/15/5 11/14/5
f 35/45/3 10/13/3 12/15/3
f 30/39/8 5/6/8 1/1/8
f 29/38/7 7/9/7 5/6/7
f 31/40/6 3/4/6 7/9/6
f 32/41/9 1/1/9 3/4/9
