# Blender 3.3.1
# www.blender.org
mtllib table_test_2.mtl
o Cube
v 3.958025 -6.862564 4.152966
v 3.958025 -1.985374 4.152966
v -3.958025 -6.862563 4.152966
v -3.958025 -1.985373 4.152966
v 3.958025 -6.862564 -4.152966
v 3.958025 -1.985374 -4.152966
v -3.958025 -6.862563 -4.152966
v -3.958025 -1.985373 -4.152966
v -3.958025 -1.828529 -3.830987
v 3.958025 -1.828529 -3.830987
v -3.958025 -2.238929 -3.608711
v 3.958025 -2.238930 -3.608712
v -3.958026 -2.617157 -3.247754
v 3.958025 -2.617157 -3.247755
v -3.958025 -2.948675 -2.761988
v 3.958025 -2.948676 -2.761988
v -3.958026 -3.220746 -2.170080
v 3.958025 -3.220746 -2.170081
v -3.958026 -3.422913 -1.494777
v 3.958025 -3.422913 -1.494777
v -3.958026 -3.547406 -0.762031
v 3.958025 -3.547407 -0.762031
v -3.958025 -3.589442 0.000000
v 3.958025 -3.589443 -0.000000
v -3.958025 -3.547406 0.762031
v 3.958026 -3.547407 0.762031
v -3.958025 -3.422913 1.494778
v 3.958025 -3.422913 1.494777
v -3.958025 -3.220746 2.170081
v 3.958025 -3.220746 2.170080
v -3.958025 -2.948675 2.761988
v 3.958025 -2.948676 2.761988
v -3.958025 -2.617157 3.247755
v 3.958026 -2.617157 3.247754
v -3.958025 -2.238929 3.608712
v 3.958026 -2.238930 3.608711
v -3.958025 -1.828529 3.830987
v 3.958025 -1.828529 3.830987
vn -0.0000 -0.0000 1.0000
vn -0.0000 -0.0000 -1.0000
vn -0.0000 -1.0000 -0.0000
vn -0.0000 0.4762 0.8793
vn -0.0000 0.6904 0.7234
vn -0.0000 0.8260 0.5637
vn -0.0000 0.9086 0.4176
vn -0.0000 0.9580 0.2868
vn -0.0000 0.9859 0.1675
vn -0.0000 0.9985 0.0551
vn -0.0000 0.9985 -0.0551
vn -0.0000 0.9859 -0.1675
vn -0.0000 0.9580 -0.2868
vn -0.0000 0.9086 -0.4176
vn -0.0000 0.8260 -0.5637
vn -0.0000 0.6904 -0.7234
vn -0.0000 0.4762 -0.8793
vn -1.0000 -0.0000 -0.0000
vn 1.0000 -0.0000 -0.0000
vn -0.0000 0.8990 -0.4379
vn -0.0000 0.8990 0.4379
vt 0.375000 0.000000
vt 0.125000 0.750000
vt 0.625000 0.000000
vt 0.375000 0.250000
vt 0.125000 0.500000
vt 0.625000 0.250000
vt 0.375000 0.750000
vt 0.625000 0.750000
vt 0.375000 0.500000
vt 0.625000 0.500000
vt 0.718750 0.500000
vt 0.718750 1.000000
vt 0.687500 0.500000
vt 0.687500 1.000000
vt 0.656250 0.500000
vt 0.656250 1.000000
vt 0.625000 0.500000
vt 0.625000 1.000000
vt 0.593750 0.500000
vt 0.593750 1.000000
vt 0.562500 0.500000
vt 0.562500 1.000000
vt 0.531250 0.500000
vt 0.531250 1.000000
vt 0.500000 0.500000
vt 0.500000 1.000000
vt 0.468750 0.500000
vt 0.468750 1.000000
vt 0.437500 0.500000
vt 0.437500 1.000000
vt 0.406250 0.500000
vt 0.406250 1.000000
vt 0.375000 0.500000
vt 0.375000 1.000000
vt 0.343750 0.500000
vt 0.343750 1.000000
vt 0.312500 0.500000
vt 0.312500 1.000000
vt 0.281250 0.500000
vt 0.281250 1.000000
s 0
f 2/3/1 3/4/1 1/1/1
f 7/9/2 6/8/2 5/7/2
f 7/9/3 1/2/3 3/5/3
f 2/3/1 4/6/1 3/4/1
f 7/9/2 8/10/2 6/8/2
f 7/9/3 5/7/3 1/2/3
f 11/13/4 10/12/4 9/11/4
f 13/15/5 12/14/5 11/13/5
f 15/17/6 14/16/6 13/15/6
f 17/19/7 16/18/7 15/17/7
f 19/21/8 18/20/8 17/19/8
f 21/23/9 20/22/9 19/21/9
f 23/25/10 22/24/10 21/23/10
f 25/27/11 24/26/11 23/25/11
f 27/29/12 26/28/12 25/27/12
f 29/31/13 28/30/13 27/29/13
f 31/33/14 30/32/14 29/31/14
f 33/35/15 32/34/15 31/33/15
f 35/37/16 34/36/16 33/35/16
f 37/39/17 36/38/17 35/37/17
f 23/25/18 21/23/18 7/9/18
f 24/26/19 26/28/19 1/2/19
f 9/11/20 6/8/20 8/10/20
f 2/3/21 37/39/21 4/6/21
f 11/13/4 12/14/4 10/12/4
f 13/15/5 14/16/5 12/14/5
f 15/17/6 16/18/6 14/16/6
f 17/19/7 18/20/7 16/18/7
f 19/21/8 20/22/8 18/20/8
f 21/23/9 22/24/9 20/22/9
f 23/25/10 24/26/10 22/24/10
f 25/27/11 26/28/11 24/26/11
f 27/29/12 28/30/12 26/28/12
f 29/31/13 30/32/13 28/30/13
f 31/33/14 32/34/14 30/32/14
f 33/35/15 34/36/15 32/34/15
f 35/37/16 36/38/16 34/36/16
f 37/39/17 38/40/17 36/38/17
f 3/5/18 4/6/18 35/37/18
f 4/6/18 37/39/18 35/37/18
f 9/11/18 8/10/18 11/13/18
f 8/10/18 7/9/18 11/13/18
f 3/5/18 35/37/18 33/35/18
f 3/5/18 33/35/18 31/33/18
f 13/15/18 11/13/18 7/9/18
f 15/17/18 13/15/18 7/9/18
f 3/5/18 31/33/18 29/31/18
f 3/5/18 29/31/18 27/29/18
f 17/19/18 15/17/18 7/9/18
f 19/21/18 17/19/18 7/9/18
f 3/5/18 27/29/18 25/27/18
f 3/5/18 25/27/18 23/25/18
f 21/23/18 19/21/18 7/9/18
f 3/5/18 23/25/18 7/9/18
f 5/7/19 6/8/19 12/14/19
f 6/8/19 10/12/19 12/14/19
f 38/40/19 2/3/19 36/38/19
f 2/3/19 1/2/19 36/38/19
f 5/7/19 12/14/19 14/16/19
f 5/7/19 14/16/19 16/18/19
f 34/36/19 36/38/19 1/2/19
f 32/34/19 34/36/19 1/2/19
f 5/7/19 16/18/19 18/20/19
f 5/7/19 18/20/19 20/22/19
f 30/32/19 32/34/19 1/2/19
f 28/30/19 30/32/19 1/2/19
f 5/7/19 20/22/19 22/24/19
f 5/7/19 22/24/19 24/26/19
f 26/28/19 28/30/19 1/2/19
f 5/7/19 24/26/19 1/2/19
f 9/11/20 10/12/20 6/8/20
f 2/3/21 38/40/21 37/39/21
