# Blender 3.3.1
# www.blender.org
mtllib table9.mtl
o Cube.006
v -0.408805 -0.686868 -5.372799
v -0.408805 0.000000 -5.372799
v -0.408805 -0.686868 -9.422312
v -0.408805 0.000000 -9.422312
v 4.619258 -0.686868 -5.372799
v 4.619258 0.113202 -5.372799
v 4.619258 -0.686868 -9.422312
v 4.619258 0.000000 -9.422312
v 4.619258 0.686868 -1.761012
v 4.619258 -0.686868 -1.761012
v 0.846058 -0.686868 -5.372799
v 0.846058 0.000000 -5.372799
v 0.846058 -0.686868 -1.761012
v 0.846058 0.686868 -1.761012
v -5.560885 -0.686868 -1.761012
v -5.560885 0.686868 -1.761012
v -2.386111 -0.686868 -9.422312
v -4.831787 -0.686868 -5.372799
v -4.831787 0.000000 -5.372799
v -2.386111 0.000000 -9.422312
v -0.408805 -0.686868 -2.953808
v -0.408805 0.000000 -2.953808
v -4.831787 -0.686868 -2.953808
v -4.831787 0.000000 -2.953808
v -5.591349 -0.686868 -5.372799
v -5.591349 0.000000 -5.372799
v -5.591349 -0.686868 -2.953808
v -5.591349 0.000000 -2.953808
v -4.831787 2.866604 -3.369205
v -4.831787 2.866604 -2.953808
v -5.591349 2.866604 -3.369205
v -5.591349 2.866604 -2.953808
v 5.661986 0.000000 -9.422312
v 5.661986 -0.686868 -9.422312
v 5.661986 -0.686868 -5.372799
v 5.661986 0.000000 -5.372799
v 5.661986 0.686868 -1.761012
v 5.661986 -0.686868 -1.761012
v 4.619258 0.730997 -9.818898
v 4.619258 0.730997 -5.769386
v 4.619258 1.417865 -2.157599
v 5.661986 0.730997 -9.818898
v 5.661986 0.730997 -5.769386
v 5.661986 1.417865 -2.157599
v -0.408805 -0.686868 5.372799
v -0.408805 0.000000 5.372799
v -0.408805 -0.686868 9.422312
v -0.408805 0.000000 9.422312
v 4.619258 -0.686868 5.372799
v 4.619258 0.113202 5.372799
v 4.619258 -0.686868 9.422312
v 4.619258 0.000000 9.422312
v 4.619258 0.686868 1.761012
v 4.619258 -0.686868 1.761012
v 0.846058 -0.686868 5.372799
v 0.846058 0.000000 5.372799
v 0.846058 -0.686868 1.761012
v 0.846058 0.686868 1.761012
v -5.560885 -0.686868 1.761012
v -5.560885 0.686868 1.761012
v -2.386111 -0.686868 9.422312
v -4.831787 -0.686868 5.372799
v -4.831787 0.000000 5.372799
v -2.386111 0.000000 9.422312
v -0.408805 -0.686868 2.953808
v -0.408805 0.000000 2.953808
v -4.831787 -0.686868 2.953808
v -4.831787 0.000000 2.953808
v -5.591349 -0.686868 5.372799
v -5.591349 0.000000 5.372799
v -5.591349 -0.686868 2.953808
v -5.591349 0.000000 2.953808
v -4.831787 2.866604 3.369205
v -4.831787 2.866604 2.953808
v -5.591349 2.866604 3.369205
v -5.591349 2.866604 2.953808
v 5.661986 0.000000 9.422312
v 5.661986 -0.686868 9.422312
v 5.661986 -0.686868 5.372799
v 5.661986 0.000000 5.372799
v 5.661986 0.686868 1.761012
v 5.661986 -0.686868 1.761012
v 4.619258 0.730997 9.818898
v 4.619258 0.730997 5.769386
v 4.619258 1.417865 2.157599
v 5.661986 0.730997 9.818898
v 5.661986 0.730997 5.769386
v 5.661986 1.417865 2.157599
v 0.846058 0.844050 -1.761012
v -5.560885 0.844050 -1.761012
v 0.846058 0.844050 1.761012
v -5.560885 0.844050 1.761012
v -5.560885 0.686868 -0.991143
v -5.560885 0.686868 0.991143
v 0.846058 0.686868 -0.991143
v 0.846058 0.686868 0.991143
v -0.574743 -0.819577 5.528134
v -0.574743 1.568584 5.528134
v -0.574743 -0.819577 4.494627
v -0.574743 3.480571 4.494627
v 1.017485 -0.819577 5.528134
v 1.017485 1.568584 5.528134
v 1.017485 -0.819577 4.494627
v 1.017485 3.480571 4.494627
v -0.574743 3.480571 3.935906
v -0.574743 -0.819577 3.935906
v 1.017485 -0.819577 3.935906
v 1.017485 3.480571 3.935906
v -0.574743 -0.819577 -5.528134
v -0.574743 1.568584 -5.528134
v -0.574743 -0.819577 -4.494627
v -0.574743 3.480571 -4.494627
v 1.017485 -0.819577 -5.528134
v 1.017485 1.568584 -5.528134
v 1.017485 -0.819577 -4.494627
v 1.017485 3.480571 -4.494627
v -0.574743 3.480571 -3.935906
v -0.574743 -0.819577 -3.935906
v 1.017485 -0.819577 -3.935906
v 1.017485 3.480571 -3.935906
vn -0.0000 1.0000 -0.0000
vn -0.0000 -0.0000 -1.0000
vn -0.0000 -1.0000 -0.0000
vn -0.0296 0.9872 -0.1568
vn -1.0000 -0.0000 -0.0000
vn -0.0000 -0.0000 1.0000
vn -0.8560 -0.0000 -0.5170
vn 1.0000 -0.0000 -0.0000
vn -0.0000 0.5729 -0.8196
vn -0.0000 -0.4769 -0.8790
vn -0.0000 0.9824 -0.1868
vn -0.0000 0.4769 0.8790
vn -0.0296 0.9872 0.1568
vn -0.8560 -0.0000 0.5170
vn -0.0000 0.5729 0.8196
vn -0.0000 -0.4769 0.8790
vn -0.0000 0.9824 0.1868
vn -0.0000 0.4769 -0.8790
vn -0.0300 0.9992 -0.0279
vn -0.0300 0.9992 0.0279
vn -0.0000 0.9798 0.2000
vn -0.0000 0.9798 -0.2000
vn -0.0000 0.4755 0.8797
vn -0.0000 0.4755 -0.8797
vt 0.375000 1.000000
vt 0.125000 0.750000
vt 0.875000 0.750000
vt 0.625000 1.000000
vt 0.125000 0.500000
vt 0.375000 0.250000
vt 0.625000 0.250000
vt 0.875000 0.500000
vt 0.375000 0.750000
vt 0.625000 0.750000
vt 0.375000 0.500000
vt 0.625000 0.500000
vt 0.625000 0.750000
vt 0.000000 0.000000
vt 0.375000 0.750000
vt 0.000000 0.000000
vt 0.250000 0.750000
vt 0.375000 0.875000
vt 0.750000 0.750000
vt 0.625000 0.875000
vt 0.250000 0.750000
vt 0.375000 0.875000
vt 0.750000 0.750000
vt 0.625000 0.875000
vt 0.375000 0.875000
vt 0.625000 0.875000
vt 0.125000 0.500000
vt 0.375000 0.250000
vt 0.125000 0.750000
vt 0.375000 0.000000
vt 0.625000 0.000000
vt 0.875000 0.750000
vt 0.875000 0.500000
vt 0.625000 0.250000
vt 0.125000 0.750000
vt 0.375000 1.000000
vt 0.625000 1.000000
vt 0.875000 0.750000
vt 0.375000 1.000000
vt 0.125000 0.750000
vt 0.875000 0.750000
vt 0.625000 1.000000
vt 0.125000 0.750000
vt 0.375000 0.000000
vt 0.625000 0.000000
vt 0.375000 0.000000
vt 0.125000 0.750000
vt 0.375000 1.000000
vt 0.625000 1.000000
vt 0.625000 0.000000
vt 0.875000 0.750000
vt 0.625000 0.000000
vt 0.875000 0.750000
vt 0.625000 1.000000
vt 0.875000 0.750000
vt 0.625000 0.000000
vt 0.875000 0.750000
vt 0.625000 1.000000
vt 0.625000 0.000000
vt 0.625000 0.500000
vt 0.375000 0.500000
vt 0.375000 0.750000
vt 0.625000 0.750000
vt 0.625000 0.750000
vt 0.000000 0.000000
vt 0.375000 0.750000
vt 0.000000 0.000000
vt 0.625000 0.500000
vt 0.625000 0.750000
vt 0.625000 0.750000
vt 0.000000 0.000000
vt 0.625000 0.500000
vt 0.625000 0.750000
vt 0.625000 0.750000
vt 0.000000 0.000000
vt 0.375000 1.000000
vt 0.125000 0.750000
vt 0.875000 0.750000
vt 0.625000 1.000000
vt 0.125000 0.500000
vt 0.375000 0.250000
vt 0.625000 0.250000
vt 0.875000 0.500000
vt 0.375000 0.750000
vt 0.625000 0.750000
vt 0.375000 0.500000
vt 0.625000 0.500000
vt 0.625000 0.750000
vt 0.000000 0.000000
vt 0.375000 0.750000
vt 0.000000 0.000000
vt 0.375000 0.875000
vt 0.250000 0.750000
vt 0.750000 0.750000
vt 0.625000 0.875000
vt 0.375000 0.875000
vt 0.250000 0.750000
vt 0.750000 0.750000
vt 0.625000 0.875000
vt 0.375000 0.875000
vt 0.625000 0.875000
vt 0.125000 0.500000
vt 0.375000 0.250000
vt 0.125000 0.750000
vt 0.375000 0.000000
vt 0.625000 0.000000
vt 0.875000 0.750000
vt 0.875000 0.500000
vt 0.625000 0.250000
vt 0.125000 0.750000
vt 0.375000 1.000000
vt 0.625000 1.000000
vt 0.875000 0.750000
vt 0.375000 1.000000
vt 0.125000 0.750000
vt 0.875000 0.750000
vt 0.625000 1.000000
vt 0.125000 0.750000
vt 0.375000 0.000000
vt 0.625000 0.000000
vt 0.375000 0.000000
vt 0.125000 0.750000
vt 0.375000 1.000000
vt 0.625000 1.000000
vt 0.625000 0.000000
vt 0.875000 0.750000
vt 0.625000 0.000000
vt 0.875000 0.750000
vt 0.625000 1.000000
vt 0.875000 0.750000
vt 0.625000 0.000000
vt 0.875000 0.750000
vt 0.625000 1.000000
vt 0.625000 0.000000
vt 0.625000 0.500000
vt 0.375000 0.500000
vt 0.375000 0.750000
vt 0.625000 0.750000
vt 0.625000 0.750000
vt 0.000000 0.000000
vt 0.375000 0.750000
vt 0.000000 0.000000
vt 0.625000 0.500000
vt 0.625000 0.750000
vt 0.625000 0.750000
vt 0.000000 0.000000
vt 0.625000 0.500000
vt 0.625000 0.750000
vt 0.625000 0.750000
vt 0.000000 0.000000
vt 0.625000 0.875000
vt 0.625000 0.875000
vt 0.625000 0.875000
vt 0.625000 0.875000
vt 0.625000 0.875000
vt 0.625000 0.875000
vt 0.625000 0.875000
vt 0.625000 0.875000
vt 0.375000 0.000000
vt 0.375000 1.000000
vt 0.125000 0.750000
vt 0.625000 0.000000
vt 0.625000 1.000000
vt 0.375000 0.250000
vt 0.125000 0.500000
vt 0.625000 0.250000
vt 0.375000 0.750000
vt 0.625000 0.750000
vt 0.375000 0.500000
vt 0.625000 0.500000
vt 0.625000 0.250000
vt 0.375000 0.250000
vt 0.125000 0.500000
vt 0.375000 0.500000
vt 0.625000 0.500000
vt 0.375000 0.000000
vt 0.375000 1.000000
vt 0.125000 0.750000
vt 0.625000 0.000000
vt 0.625000 1.000000
vt 0.375000 0.250000
vt 0.125000 0.500000
vt 0.625000 0.250000
vt 0.375000 0.750000
vt 0.625000 0.750000
vt 0.375000 0.500000
vt 0.625000 0.500000
vt 0.625000 0.250000
vt 0.375000 0.250000
vt 0.125000 0.500000
vt 0.375000 0.500000
vt 0.625000 0.500000
s 0
f 2/3/1 20/33/1 19/32/1
f 4/7/2 7/11/2 3/6/2
f 5/9/3 38/66/3 10/15/3
f 12/19/4 9/13/4 6/10/4
f 7/11/3 5/9/3 11/17/3
f 4/8/1 2/3/1 12/19/1
f 5/9/3 13/21/3 11/17/3
f 12/20/5 13/22/5 14/24/5
f 12/20/6 1/1/6 11/18/6
f 7/11/3 35/62/3 5/9/3
f 19/31/7 17/28/7 18/30/7
f 1/2/3 17/27/3 3/5/3
f 3/6/2 20/34/2 4/7/2
f 1/2/3 23/40/3 18/29/3
f 22/37/6 23/39/6 21/36/6
f 2/4/8 21/36/8 1/1/8
f 19/32/1 22/38/1 2/3/1
f 24/41/8 29/51/8 30/53/8
f 15/25/2 14/24/2 13/22/2
f 25/44/5 28/50/5 26/45/5
f 23/40/3 25/43/3 18/29/3
f 24/42/6 27/48/6 23/39/6
f 18/30/2 26/45/2 19/31/2
f 29/51/1 32/57/1 30/53/1
f 26/45/9 29/52/9 19/31/9
f 24/42/6 32/58/6 28/49/6
f 28/50/5 31/56/5 26/45/5
f 33/60/8 35/62/8 34/61/8
f 36/63/8 38/66/8 35/62/8
f 6/10/5 41/70/5 40/69/5
f 8/12/2 34/61/2 7/11/2
f 8/12/10 42/72/10 33/60/10
f 10/16/6 37/65/6 9/14/6
f 40/69/1 42/72/1 39/68/1
f 41/70/11 43/73/11 40/69/11
f 36/63/8 44/74/8 37/64/8
f 33/60/8 43/73/8 36/63/8
f 37/65/12 41/71/12 9/14/12
f 8/12/5 40/69/5 39/68/5
f 46/78/1 64/108/1 48/83/1
f 51/86/6 48/82/6 47/81/6
f 82/141/3 49/84/3 54/90/3
f 53/88/13 56/94/13 50/85/13
f 55/93/3 49/84/3 51/86/3
f 56/94/1 46/78/1 48/83/1
f 57/97/3 49/84/3 55/93/3
f 56/95/5 57/96/5 55/92/5
f 45/76/2 56/95/2 55/92/2
f 79/137/3 51/86/3 49/84/3
f 61/103/14 63/106/14 62/105/14
f 61/102/3 45/77/3 47/80/3
f 64/109/6 47/81/6 48/82/6
f 67/115/3 45/77/3 62/104/3
f 67/114/2 66/112/2 65/111/2
f 65/111/8 46/79/8 45/76/8
f 66/113/1 63/107/1 46/78/1
f 68/116/8 73/126/8 63/107/8
f 58/99/6 59/100/6 57/96/6
f 72/125/5 69/119/5 70/120/5
f 69/118/3 67/115/3 62/104/3
f 71/123/2 68/117/2 67/114/2
f 70/120/6 62/105/6 63/106/6
f 76/132/1 73/126/1 74/128/1
f 73/127/15 70/120/15 63/106/15
f 76/133/2 68/117/2 72/124/2
f 75/131/5 72/125/5 70/120/5
f 79/137/8 77/135/8 78/136/8
f 82/141/8 80/138/8 79/137/8
f 50/85/5 85/145/5 53/88/5
f 78/136/6 52/87/6 51/86/6
f 86/147/16 52/87/16 77/135/16
f 81/140/2 54/91/2 53/89/2
f 86/147/1 84/144/1 83/143/1
f 87/148/17 85/145/17 84/144/17
f 88/149/8 80/138/8 81/139/8
f 87/148/8 77/135/8 80/138/8
f 85/146/18 81/140/18 53/89/18
f 52/87/5 84/144/5 50/85/5
f 59/100/5 16/26/5 15/25/5
f 53/89/8 10/16/8 9/14/8
f 57/97/3 15/25/3 13/22/3
f 58/99/1 53/88/1 9/14/1
f 2/3/1 4/8/1 20/33/1
f 4/7/2 8/12/2 7/11/2
f 5/9/3 35/62/3 38/66/3
f 12/19/11 14/23/11 9/13/11
f 1/2/3 3/5/3 11/17/3
f 3/5/3 7/11/3 11/17/3
f 6/10/19 8/12/19 12/19/19
f 8/12/1 4/8/1 12/19/1
f 5/9/3 10/15/3 13/21/3
f 12/20/5 11/18/5 13/22/5
f 12/20/6 2/4/6 1/1/6
f 7/11/3 34/61/3 35/62/3
f 19/31/7 20/34/7 17/28/7
f 1/2/3 18/29/3 17/27/3
f 3/6/2 17/28/2 20/34/2
f 1/2/3 21/35/3 23/40/3
f 22/37/6 24/42/6 23/39/6
f 2/4/8 22/37/8 21/36/8
f 19/32/1 24/41/1 22/38/1
f 24/41/8 19/32/8 29/51/8
f 15/25/2 16/26/2 14/24/2
f 25/44/5 27/46/5 28/50/5
f 23/40/3 27/47/3 25/43/3
f 24/42/6 28/49/6 27/48/6
f 18/30/2 25/44/2 26/45/2
f 29/51/1 31/55/1 32/57/1
f 26/45/9 31/56/9 29/52/9
f 24/42/6 30/54/6 32/58/6
f 28/50/5 32/59/5 31/56/5
f 33/60/8 36/63/8 35/62/8
f 36/63/8 37/64/8 38/66/8
f 6/10/5 9/13/5 41/70/5
f 8/12/2 33/60/2 34/61/2
f 8/12/10 39/68/10 42/72/10
f 10/16/6 38/67/6 37/65/6
f 40/69/1 43/73/1 42/72/1
f 41/70/11 44/74/11 43/73/11
f 36/63/8 43/73/8 44/74/8
f 33/60/8 42/72/8 43/73/8
f 37/65/12 44/75/12 41/71/12
f 8/12/5 6/10/5 40/69/5
f 46/78/1 63/107/1 64/108/1
f 51/86/6 52/87/6 48/82/6
f 82/141/3 79/137/3 49/84/3
f 53/88/17 58/98/17 56/94/17
f 51/86/3 47/80/3 55/93/3
f 47/80/3 45/77/3 55/93/3
f 48/83/1 52/87/1 56/94/1
f 52/87/20 50/85/20 56/94/20
f 57/97/3 54/90/3 49/84/3
f 56/95/5 58/99/5 57/96/5
f 45/76/2 46/79/2 56/95/2
f 79/137/3 78/136/3 51/86/3
f 61/103/14 64/109/14 63/106/14
f 61/102/3 62/104/3 45/77/3
f 64/109/6 61/103/6 47/81/6
f 67/115/3 65/110/3 45/77/3
f 67/114/2 68/117/2 66/112/2
f 65/111/8 66/112/8 46/79/8
f 66/113/1 68/116/1 63/107/1
f 68/116/8 74/128/8 73/126/8
f 58/99/6 60/101/6 59/100/6
f 72/125/5 71/121/5 69/119/5
f 69/118/3 71/122/3 67/115/3
f 71/123/2 72/124/2 68/117/2
f 70/120/6 69/119/6 62/105/6
f 76/132/1 75/130/1 73/126/1
f 73/127/15 75/131/15 70/120/15
f 76/133/2 74/129/2 68/117/2
f 75/131/5 76/134/5 72/125/5
f 79/137/8 80/138/8 77/135/8
f 82/141/8 81/139/8 80/138/8
f 50/85/5 84/144/5 85/145/5
f 78/136/6 77/135/6 52/87/6
f 86/147/16 83/143/16 52/87/16
f 81/140/2 82/142/2 54/91/2
f 86/147/1 87/148/1 84/144/1
f 87/148/17 88/149/17 85/145/17
f 88/149/8 87/148/8 80/138/8
f 87/148/8 86/147/8 77/135/8
f 85/146/18 88/150/18 81/140/18
f 52/87/5 83/143/5 84/144/5
f 59/100/5 94/156/5 93/155/5
f 53/89/8 54/91/8 10/16/8
f 13/22/3 10/16/3 54/91/3
f 57/97/3 59/100/3 15/25/3
f 13/22/3 54/91/3 57/97/3
f 9/14/1 95/157/1 96/158/1
f 16/26/2 89/151/2 14/24/2
f 58/99/6 92/154/6 60/101/6
f 90/152/5 16/26/5 93/155/5
f 60/101/5 92/154/5 94/156/5
f 58/99/8 96/158/8 91/153/8
f 14/24/8 89/151/8 95/157/8
f 90/152/21 95/157/21 89/151/21
f 96/158/22 92/154/22 91/153/22
f 96/158/1 93/155/1 94/156/1
f 59/100/5 60/101/5 94/156/5
f 93/155/5 16/26/5 59/100/5
f 9/14/1 14/24/1 95/157/1
f 96/158/1 58/99/1 9/14/1
f 16/26/2 90/152/2 89/151/2
f 58/99/6 91/153/6 92/154/6
f 90/152/21 93/155/21 95/157/21
f 96/158/22 94/156/22 92/154/22
f 96/158/1 95/157/1 93/155/1
f 98/162/5 99/164/5 97/159/5
f 104/170/1 105/171/1 100/166/1
f 103/169/8 102/168/8 101/167/8
f 102/168/6 97/160/6 101/167/6
f 103/169/3 97/161/3 99/165/3
f 102/168/23 100/166/23 98/163/23
f 105/171/2 107/174/2 106/172/2
f 100/166/5 106/172/5 99/164/5
f 103/169/8 108/175/8 104/170/8
f 99/165/3 107/174/3 103/169/3
f 110/179/5 109/176/5 111/181/5
f 116/187/1 112/183/1 117/188/1
f 115/186/8 113/184/8 114/185/8
f 114/185/2 113/184/2 109/177/2
f 115/186/3 111/182/3 109/178/3
f 114/185/24 110/180/24 112/183/24
f 117/188/6 118/189/6 119/191/6
f 112/183/5 111/181/5 118/189/5
f 115/186/8 116/187/8 120/192/8
f 111/182/3 115/186/3 119/191/3
f 98/162/5 100/166/5 99/164/5
f 104/170/1 108/175/1 105/171/1
f 103/169/8 104/170/8 102/168/8
f 102/168/6 98/163/6 97/160/6
f 103/169/3 101/167/3 97/161/3
f 102/168/23 104/170/23 100/166/23
f 105/171/2 108/175/2 107/174/2
f 100/166/5 105/171/5 106/172/5
f 103/169/8 107/174/8 108/175/8
f 99/165/3 106/173/3 107/174/3
f 110/179/5 111/181/5 112/183/5
f 116/187/1 117/188/1 120/192/1
f 115/186/8 114/185/8 116/187/8
f 114/185/2 109/177/2 110/180/2
f 115/186/3 109/178/3 113/184/3
f 114/185/24 112/183/24 116/187/24
f 117/188/6 119/191/6 120/192/6
f 112/183/5 118/189/5 117/188/5
f 115/186/8 120/192/8 119/191/8
f 111/182/3 119/191/3 118/190/3
