# Blender 3.3.1
# www.blender.org
mtllib table7.mtl
o Cube.005
v -6.032708 -1.000000 9.030962
v -6.032708 0.000000 9.030962
v -6.032708 -1.000000 -9.030962
v -6.032708 0.000000 -9.030962
v 6.032708 -1.000000 9.030962
v 6.032708 0.000000 9.030962
v 6.032708 -1.000000 -9.030962
v 6.032708 0.000000 -9.030962
v 2.863230 0.000000 -3.918539
v 2.863230 0.000000 -6.725567
v 4.533278 0.000000 -3.918539
v 4.533278 0.000000 -6.725567
v -2.863229 0.000000 3.918539
v -2.863229 0.000000 6.725569
v -4.533278 0.000000 3.918539
v -4.533278 0.000000 6.725569
v 2.863230 -1.000000 -3.918539
v 2.863230 -1.000000 -6.725567
v 4.533278 -1.000000 -3.918539
v 4.533278 -1.000000 -6.725567
v -2.863229 -1.000000 3.918539
v -2.863229 -1.000000 6.725569
v -4.533278 -1.000000 3.918539
v -4.533278 -1.000000 6.725569
v 4.377708 0.000000 5.522881
v 3.501741 0.000000 4.646914
v 3.501741 0.000000 6.398847
v 2.625774 0.000000 5.522880
v -4.377708 0.000000 -5.522881
v -3.501741 0.000000 -4.646914
v -3.501741 0.000000 -6.398847
v -2.625775 0.000000 -5.522881
v 4.377708 -1.000000 5.522881
v 3.501741 -1.000000 4.646914
v 3.501741 -1.000000 6.398847
v 2.625774 -1.000000 5.522880
v -4.377708 -1.000000 -5.522881
v -3.501741 -1.000000 -4.646914
v -3.501741 -1.000000 -6.398847
v -2.625775 -1.000000 -5.522881
vn -1.0000 -0.0000 -0.0000
vn -0.0000 -0.0000 -1.0000
vn 1.0000 -0.0000 -0.0000
vn -0.0000 -0.0000 1.0000
vn -0.0000 -1.0000 -0.0000
vn -0.0000 1.0000 -0.0000
vn 0.7071 -0.0000 -0.7071
vn 0.7071 -0.0000 0.7071
vn -0.7071 -0.0000 -0.7071
vt 0.375000 1.000000
vt 0.375000 0.000000
vt 0.000000 0.000000
vt 0.625000 1.000000
vt 0.625000 0.000000
vt 0.000000 0.000000
vt 0.375000 0.250000
vt 0.000000 0.000000
vt 0.625000 0.250000
vt 0.000000 0.000000
vt 0.375000 0.750000
vt 0.000000 0.000000
vt 0.625000 0.750000
vt 0.000000 0.000000
vt 0.375000 0.500000
vt 0.000000 0.000000
vt 0.625000 0.500000
vt 0.000000 0.000000
vt 0.875000 0.750000
vt 0.000000 0.000000
vt 0.875000 0.500000
vt 0.000000 0.000000
vt 0.000000 0.000000
vt 0.000000 0.000000
vt 0.875000 0.750000
vt 0.000000 0.000000
vt 0.875000 0.500000
vt 0.000000 0.000000
vt 0.625000 0.750000
vt 0.000000 0.000000
vt 0.625000 0.500000
vt 0.000000 0.000000
vt 0.875000 0.750000
vt 0.000000 0.000000
vt 0.875000 0.500000
vt 0.000000 0.000000
vt 0.000000 0.000000
vt 0.000000 0.000000
vt 0.875000 0.750000
vt 0.000000 0.000000
vt 0.875000 0.500000
vt 0.000000 0.000000
vt 0.000000 0.000000
vt 0.625000 0.750000
vt 0.625000 0.500000
vt 0.000000 0.000000
vt 0.000000 0.000000
vt 0.000000 0.000000
vt 1.000000 0.000000
vt 0.000000 0.000000
vt 0.000000 0.000000
vt 0.000000 0.000000
vt 0.000000 0.000000
vt 1.000000 0.000000
vt 0.000000 0.000000
vt 0.000000 0.000000
vt 0.000000 0.000000
vt 0.000000 0.000000
vt 1.000000 0.000000
vt 0.000000 0.000000
vt 0.000000 0.000000
vt 0.000000 0.000000
vt 0.000000 0.000000
vt 1.000000 0.000000
vt 0.000000 0.000000
vt 0.000000 0.000000
s 0
f 2/5/1 3/7/1 1/2/1
f 4/9/2 7/15/2 3/7/2
f 8/17/3 5/11/3 7/15/3
f 6/13/4 1/1/4 5/11/4
f 2/5/1 4/9/1 3/7/1
f 4/9/2 8/17/2 7/15/2
f 8/17/3 6/13/3 5/11/3
f 6/13/4 2/4/4 1/1/4
f 17/33/5 22/41/5 21/39/5
f 23/44/5 1/2/5 3/7/5
f 5/12/5 19/37/5 7/16/5
f 9/19/6 13/25/6 14/27/6
f 2/5/6 15/29/6 4/9/6
f 11/23/6 6/14/6 8/18/6
f 17/33/5 21/39/5 18/35/5
f 23/44/5 24/45/5 1/2/5
f 7/16/5 18/36/5 3/8/5
f 3/8/5 21/40/5 23/43/5
f 24/46/5 22/42/5 1/3/5
f 1/3/5 22/42/5 5/12/5
f 19/37/5 5/12/5 17/34/5
f 7/16/5 20/38/5 18/36/5
f 7/16/5 19/37/5 20/38/5
f 9/19/6 10/21/6 13/25/6
f 2/5/6 16/31/6 15/29/6
f 8/18/6 4/10/6 10/22/6
f 4/10/6 15/30/6 13/26/6
f 16/32/6 2/6/6 14/28/6
f 2/6/6 6/14/6 14/28/6
f 11/23/6 9/20/6 6/14/6
f 8/18/6 10/22/6 12/24/6
f 8/18/6 12/24/6 11/23/6
f 19/37/1 12/24/1 20/38/1
f 17/34/2 11/23/2 19/37/2
f 18/35/3 9/19/3 17/33/3
f 20/38/4 10/22/4 18/36/4
f 23/44/3 16/31/3 24/45/3
f 21/40/4 15/30/4 23/43/4
f 22/41/1 13/25/1 21/39/1
f 24/46/2 14/28/2 22/42/2
f 36/61/7 27/49/7 35/59/7
f 39/65/8 29/52/8 37/62/8
f 37/62/7 30/53/7 38/63/7
f 38/63/9 32/56/9 40/66/9
f 36/61/5 5/12/5 22/42/5
f 6/14/6 28/51/6 14/28/6
f 6/14/6 9/20/6 25/47/6
f 17/34/5 33/57/5 34/58/5
f 40/66/5 3/8/5 18/36/5
f 4/10/6 32/56/6 10/22/6
f 21/40/5 37/62/5 38/63/5
f 29/52/6 4/10/6 13/26/6
f 19/37/1 11/23/1 12/24/1
f 17/34/2 9/20/2 11/23/2
f 18/35/3 10/21/3 9/19/3
f 20/38/4 12/24/4 10/22/4
f 23/44/3 15/29/3 16/31/3
f 21/40/4 13/26/4 15/30/4
f 22/41/1 14/27/1 13/25/1
f 24/46/2 16/32/2 14/28/2
f 36/61/7 28/51/7 27/49/7
f 39/65/8 31/55/8 29/52/8
f 37/62/7 29/52/7 30/53/7
f 38/63/9 30/53/9 32/56/9
f 36/61/5 35/59/5 5/12/5
f 6/14/6 27/49/6 28/51/6
f 9/20/6 14/28/6 26/48/6
f 14/28/6 28/51/6 26/48/6
f 25/47/6 27/50/6 6/14/6
f 9/20/6 26/48/6 25/47/6
f 5/12/5 35/60/5 33/57/5
f 34/58/5 36/61/5 22/42/5
f 17/34/5 5/12/5 33/57/5
f 34/58/5 22/42/5 17/34/5
f 40/66/5 39/64/5 3/8/5
f 4/10/6 31/54/6 32/56/6
f 38/63/5 40/66/5 18/36/5
f 3/8/5 39/65/5 37/62/5
f 38/63/5 18/36/5 21/40/5
f 21/40/5 3/8/5 37/62/5
f 13/26/6 10/22/6 30/53/6
f 10/22/6 32/56/6 30/53/6
f 29/52/6 31/55/6 4/10/6
f 13/26/6 30/53/6 29/52/6
