# Blender 3.3.1
# www.blender.org
mtllib table4.mtl
o Cube
v 6.566130 -1.105491 2.474149
v 6.566130 -0.843601 2.474149
v 1.617831 -1.105491 2.474149
v 1.617831 -0.843601 2.474149
v 1.617832 -1.105491 5.946810
v 6.566130 -1.105491 5.946809
v 6.566130 0.000000 5.946809
v 1.617832 0.000000 5.946810
v 1.617832 -1.105491 11.078176
v 6.566130 -1.105491 11.078176
v 6.566130 0.000000 11.078176
v 1.617832 0.000000 11.078176
v -2.497898 0.000000 5.946810
v -2.497898 -1.105491 5.946810
v -2.497898 0.000000 11.078176
v -2.497898 -1.105491 11.078176
v -5.346933 0.000000 5.946809
v -5.346933 -1.105491 5.946809
v -5.346933 0.000000 11.078176
v -5.346933 -1.105491 11.078176
v -1.967693 0.000000 5.740176
v -1.967693 -1.105491 5.740176
v -2.497898 2.877206 5.946810
v -1.967693 2.877206 5.740176
v 1.617832 -1.105491 11.947731
v 6.566130 -1.105491 11.947731
v 6.566130 0.000000 11.947731
v 1.617832 0.000000 11.947731
v 6.566130 1.288352 11.078176
v 1.617832 1.288352 11.078176
v 6.566130 1.288352 11.947731
v 1.617832 1.288352 11.947731
v 6.566130 -1.105491 -2.474150
v 6.566130 -0.843601 -2.474150
v 1.617831 -1.105491 -2.474149
v 1.617831 -0.843601 -2.474149
v 1.617831 -1.105491 -5.946810
v 6.566129 -1.105491 -5.946810
v 6.566129 0.000000 -5.946810
v 1.617831 0.000000 -5.946810
v 1.617831 -1.105491 -11.078176
v 6.566129 -1.105491 -11.078176
v 6.566129 0.000000 -11.078176
v 1.617831 0.000000 -11.078176
v -2.497898 0.000000 -5.946810
v -2.497898 -1.105491 -5.946810
v -2.497898 0.000000 -11.078176
v -2.497898 -1.105491 -11.078176
v -5.346934 0.000000 -5.946810
v -5.346934 -1.105491 -5.946810
v -5.346933 0.000000 -11.078176
v -5.346933 -1.105491 -11.078176
v -4.840546 0.000000 0.000000
v -4.840546 -1.105491 0.000000
v -7.689583 0.000000 0.000000
v -7.689583 -1.105491 0.000000
v -1.967693 0.000000 -5.740176
v -1.967693 -1.105491 -5.740176
v -4.233659 0.000000 0.000000
v -4.233659 -1.105491 0.000000
v -4.840546 2.877206 0.000000
v -2.497898 2.877206 -5.946810
v -4.233659 2.877206 0.000000
v -1.967693 2.877206 -5.740176
v 1.617831 -1.105491 -11.947731
v 6.566129 -1.105491 -11.947731
v 6.566129 0.000000 -11.947731
v 1.617831 0.000000 -11.947731
v 6.566129 1.288352 -11.078176
v 1.617831 1.288352 -11.078176
v 6.566129 1.288352 -11.947731
v 1.617831 1.288352 -11.947731
vn -0.0000 0.9717 -0.2361
vn -0.0000 -1.0000 -0.0000
vn -0.0000 1.0000 -0.0000
vn 1.0000 -0.0000 -0.0000
vn -0.0000 -0.0000 -1.0000
vn -1.0000 -0.0000 -0.0000
vn -0.0000 -0.0000 1.0000
vn 0.3631 -0.0000 0.9317
vn -0.9304 -0.0000 0.3665
vn 0.9301 -0.0000 -0.3672
vn -0.0000 0.9717 0.2361
vn 0.3631 -0.0000 -0.9317
vn -0.9304 -0.0000 -0.3665
vn 0.9301 -0.0000 0.3672
vt 0.375000 1.000000
vt 0.125000 0.750000
vt 0.875000 0.750000
vt 0.625000 1.000000
vt 0.125000 0.500000
vt 0.375000 0.250000
vt 0.875000 0.500000
vt 0.625000 0.250000
vt 0.125000 0.500000
vt 0.375000 0.250000
vt 0.375000 1.000000
vt 0.125000 0.750000
vt 0.875000 0.750000
vt 0.625000 1.000000
vt 0.625000 0.250000
vt 0.875000 0.500000
vt 0.375000 0.250000
vt 0.125000 0.500000
vt 0.375000 1.000000
vt 0.125000 0.750000
vt 0.875000 0.750000
vt 0.625000 1.000000
vt 0.625000 0.250000
vt 0.875000 0.500000
vt 0.625000 0.250000
vt 0.875000 0.500000
vt 0.375000 0.250000
vt 0.125000 0.500000
vt 0.875000 0.500000
vt 0.625000 0.250000
vt 0.125000 0.500000
vt 0.375000 0.250000
vt 0.875000 0.500000
vt 0.625000 0.250000
vt 0.375000 0.250000
vt 0.125000 0.500000
vt 0.875000 0.500000
vt 0.625000 0.250000
vt 0.125000 0.500000
vt 0.375000 0.250000
vt 0.625000 0.250000
vt 0.125000 0.500000
vt 0.375000 0.250000
vt 0.875000 0.500000
vt 0.625000 0.250000
vt 0.875000 0.500000
vt 0.625000 0.250000
vt 0.375000 0.250000
vt 0.125000 0.500000
vt 0.375000 0.000000
vt 0.375000 1.000000
vt 0.125000 0.750000
vt 0.625000 1.000000
vt 0.625000 0.000000
vt 0.625000 0.250000
vt 0.625000 1.000000
vt 0.875000 0.750000
vt 0.875000 0.500000
vt 0.625000 0.250000
vt 0.625000 1.000000
vt 0.875000 0.750000
vt 0.625000 0.000000
vt 0.875000 0.500000
vt 0.625000 0.250000
vt 0.375000 1.000000
vt 0.125000 0.750000
vt 0.875000 0.750000
vt 0.625000 1.000000
vt 0.125000 0.500000
vt 0.375000 0.250000
vt 0.875000 0.500000
vt 0.625000 0.250000
vt 0.125000 0.500000
vt 0.375000 0.250000
vt 0.375000 1.000000
vt 0.125000 0.750000
vt 0.875000 0.750000
vt 0.625000 1.000000
vt 0.625000 0.250000
vt 0.875000 0.500000
vt 0.375000 0.250000
vt 0.125000 0.500000
vt 0.375000 1.000000
vt 0.125000 0.750000
vt 0.875000 0.750000
vt 0.625000 1.000000
vt 0.625000 0.250000
vt 0.875000 0.500000
vt 0.625000 0.250000
vt 0.875000 0.500000
vt 0.375000 0.250000
vt 0.125000 0.500000
vt 0.875000 0.500000
vt 0.625000 0.250000
vt 0.125000 0.500000
vt 0.375000 0.250000
vt 0.875000 0.500000
vt 0.625000 0.250000
vt 0.375000 0.250000
vt 0.125000 0.500000
vt 0.875000 0.500000
vt 0.625000 0.250000
vt 0.125000 0.500000
vt 0.375000 0.250000
vt 0.875000 0.500000
vt 0.125000 0.500000
vt 0.875000 0.500000
vt 0.625000 0.250000
vt 0.125000 0.500000
vt 0.375000 0.250000
vt 0.625000 0.250000
vt 0.375000 0.250000
vt 0.125000 0.500000
vt 0.625000 0.250000
vt 0.375000 0.250000
vt 0.125000 0.500000
vt 0.875000 0.500000
vt 0.875000 0.500000
vt 0.625000 0.250000
vt 0.875000 0.500000
vt 0.625000 0.250000
vt 0.875000 0.500000
vt 0.625000 0.250000
vt 0.375000 0.250000
vt 0.125000 0.500000
vt 0.375000 0.000000
vt 0.375000 1.000000
vt 0.125000 0.750000
vt 0.625000 1.000000
vt 0.625000 0.000000
vt 0.625000 0.250000
vt 0.625000 1.000000
vt 0.875000 0.750000
vt 0.875000 0.500000
vt 0.625000 0.250000
vt 0.625000 1.000000
vt 0.875000 0.750000
vt 0.625000 0.000000
vt 0.875000 0.500000
vt 0.625000 0.250000
s 0
f 4/7/1 7/13/1 2/3/1
f 33/66/2 3/5/2 35/69/2
f 4/7/3 34/67/3 36/71/3
f 2/4/4 33/65/4 34/68/4
f 5/10/5 13/25/5 8/15/5
f 1/2/2 5/9/2 3/5/2
f 4/8/6 5/10/6 8/15/6
f 2/4/4 6/11/4 1/1/4
f 9/17/6 28/55/6 12/23/6
f 7/14/4 10/19/4 6/11/4
f 8/16/3 11/21/3 7/13/3
f 6/12/2 9/18/2 5/9/2
f 16/31/2 18/36/2 14/28/2
f 9/18/2 14/28/2 5/9/2
f 8/16/3 15/29/3 12/24/3
f 12/23/7 16/32/7 9/17/7
f 18/35/6 19/38/6 17/34/6
f 18/36/2 54/106/2 14/28/2
f 13/26/3 19/37/3 15/29/3
f 15/30/7 20/40/7 16/32/7
f 14/27/8 21/41/8 13/25/8
f 17/33/3 53/105/3 55/107/3
f 17/34/9 56/110/9 18/35/9
f 22/43/10 59/114/10 21/41/10
f 13/26/9 61/117/9 53/105/9
f 14/28/2 60/116/2 22/42/2
f 23/44/3 63/120/3 61/117/3
f 21/41/8 23/45/8 13/25/8
f 59/114/10 24/47/10 21/41/10
f 27/54/7 25/48/7 26/50/7
f 11/22/4 26/51/4 10/19/4
f 11/22/4 31/60/4 27/53/4
f 10/20/2 25/49/2 9/18/2
f 30/58/3 31/61/3 29/57/3
f 27/54/7 32/64/7 28/55/7
f 12/24/5 29/57/5 11/21/5
f 28/55/6 30/59/6 12/23/6
f 39/77/11 36/71/11 34/67/11
f 45/89/7 37/74/7 40/79/7
f 37/73/2 33/66/2 35/69/2
f 36/72/6 37/74/6 35/70/6
f 38/75/4 34/68/4 33/65/4
f 68/131/6 41/81/6 44/87/6
f 42/83/4 39/78/4 38/75/4
f 43/85/3 40/80/3 39/77/3
f 41/82/2 38/76/2 37/73/2
f 50/100/2 48/95/2 46/92/2
f 46/92/2 41/82/2 37/73/2
f 47/93/3 40/80/3 44/88/3
f 48/96/5 44/87/5 41/81/5
f 51/102/6 50/99/6 49/98/6
f 54/106/2 50/100/2 46/92/2
f 51/101/3 45/90/3 47/93/3
f 52/104/5 47/94/5 48/96/5
f 57/111/12 46/91/12 45/89/12
f 49/97/3 53/105/3 45/90/3
f 56/110/13 49/98/13 50/99/13
f 59/114/14 58/112/14 57/111/14
f 61/117/13 45/90/13 53/105/13
f 46/92/2 60/116/2 54/106/2
f 63/120/3 62/118/3 61/117/3
f 62/119/12 57/111/12 45/89/12
f 64/123/14 59/114/14 57/111/14
f 65/124/5 67/130/5 66/126/5
f 66/127/4 43/86/4 42/83/4
f 71/136/4 43/86/4 67/129/4
f 65/125/2 42/84/2 41/82/2
f 71/137/3 70/134/3 69/133/3
f 72/140/5 67/130/5 68/131/5
f 69/133/7 44/88/7 43/85/7
f 70/135/6 68/131/6 44/87/6
f 3/6/6 36/72/6 35/70/6
f 4/7/1 8/16/1 7/13/1
f 33/66/2 1/2/2 3/5/2
f 4/7/3 2/3/3 34/67/3
f 2/4/4 1/1/4 33/65/4
f 5/10/5 14/27/5 13/25/5
f 1/2/2 6/12/2 5/9/2
f 4/8/6 3/6/6 5/10/6
f 2/4/4 7/14/4 6/11/4
f 9/17/6 25/48/6 28/55/6
f 7/14/4 11/22/4 10/19/4
f 8/16/3 12/24/3 11/21/3
f 6/12/2 10/20/2 9/18/2
f 16/31/2 20/39/2 18/36/2
f 9/18/2 16/31/2 14/28/2
f 8/16/3 13/26/3 15/29/3
f 12/23/7 15/30/7 16/32/7
f 18/35/6 20/40/6 19/38/6
f 18/36/2 56/109/2 54/106/2
f 13/26/3 17/33/3 19/37/3
f 15/30/7 19/38/7 20/40/7
f 14/27/8 22/43/8 21/41/8
f 17/33/3 13/26/3 53/105/3
f 17/34/9 55/108/9 56/110/9
f 22/43/10 60/115/10 59/114/10
f 13/26/9 23/44/9 61/117/9
f 14/28/2 54/106/2 60/116/2
f 23/44/3 24/46/3 63/120/3
f 21/41/8 24/47/8 23/45/8
f 59/114/10 63/121/10 24/47/10
f 27/54/7 28/55/7 25/48/7
f 11/22/4 27/53/4 26/51/4
f 11/22/4 29/56/4 31/60/4
f 10/20/2 26/52/2 25/49/2
f 30/58/3 32/63/3 31/61/3
f 27/54/7 31/62/7 32/64/7
f 12/24/5 30/58/5 29/57/5
f 28/55/6 32/64/6 30/59/6
f 39/77/11 40/80/11 36/71/11
f 45/89/7 46/91/7 37/74/7
f 37/73/2 38/76/2 33/66/2
f 36/72/6 40/79/6 37/74/6
f 38/75/4 39/78/4 34/68/4
f 68/131/6 65/124/6 41/81/6
f 42/83/4 43/86/4 39/78/4
f 43/85/3 44/88/3 40/80/3
f 41/82/2 42/84/2 38/76/2
f 50/100/2 52/103/2 48/95/2
f 46/92/2 48/95/2 41/82/2
f 47/93/3 45/90/3 40/80/3
f 48/96/5 47/94/5 44/87/5
f 51/102/6 52/104/6 50/99/6
f 54/106/2 56/109/2 50/100/2
f 51/101/3 49/97/3 45/90/3
f 52/104/5 51/102/5 47/94/5
f 57/111/12 58/112/12 46/91/12
f 49/97/3 55/107/3 53/105/3
f 56/110/13 55/108/13 49/98/13
f 59/114/14 60/115/14 58/112/14
f 61/117/13 62/118/13 45/90/13
f 46/92/2 58/113/2 60/116/2
f 63/120/3 64/122/3 62/118/3
f 62/119/12 64/123/12 57/111/12
f 64/123/14 63/121/14 59/114/14
f 65/124/5 68/131/5 67/130/5
f 66/127/4 67/129/4 43/86/4
f 71/136/4 69/132/4 43/86/4
f 65/125/2 66/128/2 42/84/2
f 71/137/3 72/139/3 70/134/3
f 72/140/5 71/138/5 67/130/5
f 69/133/7 70/134/7 44/88/7
f 70/135/6 72/140/6 68/131/6
f 3/6/6 4/8/6 36/72/6
