# Blender 3.3.1
# www.blender.org
mtllib table1.mtl
o Cube.001
v 5.682611 -1.810547 5.682610
v 5.682611 0.000000 5.682610
v -5.682610 -1.810547 5.682611
v -5.682610 0.000000 5.682611
v 5.682609 0.000000 -5.682612
v 5.682609 -1.810547 -5.682612
v -5.682612 0.000000 -5.682609
v -5.682612 -1.810547 -5.682609
v -3.909441 -1.810547 6.321075
v 3.909441 -1.810547 6.321076
v 3.909441 0.000000 6.321076
v -3.909441 0.000000 6.321075
v -3.909441 -1.810547 7.748229
v 3.909441 -1.810547 7.748229
v 3.909441 0.000000 7.748229
v -3.909441 0.000000 7.748229
v 0.888142 3.847382 6.321076
v -0.888141 3.847382 6.321076
v 0.888142 3.847382 7.748229
v -0.888141 3.847382 7.748229
v 3.909440 -1.810547 -6.321077
v -3.909441 -1.810547 -6.321075
v -3.909441 0.000000 -6.321075
v 3.909440 0.000000 -6.321077
v 3.909440 -1.810547 -7.748229
v -3.909442 -1.810547 -7.748229
v -3.909442 0.000000 -7.748229
v 3.909440 0.000000 -7.748229
v -0.888143 3.847382 -6.321076
v 0.888141 3.847382 -6.321076
v -0.888143 3.847382 -7.748229
v 0.888141 3.847382 -7.748229
vn -0.3388 -0.0000 0.9409
vn 0.3388 -0.0000 -0.9409
vn -0.0000 1.0000 -0.0000
vn -0.3388 -0.0000 -0.9409
vn -0.0000 -1.0000 -0.0000
vn -0.0000 -0.0000 1.0000
vn -0.0000 -0.0000 -1.0000
vn 0.3388 -0.0000 0.9409
vn -1.0000 -0.0000 -0.0000
vn 1.0000 -0.0000 -0.0000
vn 0.7865 0.6176 -0.0000
vn -0.7865 0.6176 -0.0000
vt 0.375000 1.000000
vt 0.125000 0.750000
vt 0.875000 0.750000
vt 0.625000 1.000000
vt 0.375000 0.250000
vt 0.125000 0.500000
vt 0.875000 0.500000
vt 0.625000 0.250000
vt 0.625000 0.250000
vt 0.875000 0.500000
vt 0.375000 0.250000
vt 0.125000 0.500000
vt 0.625000 1.000000
vt 0.875000 0.750000
vt 0.125000 0.750000
vt 0.375000 1.000000
vt 0.125000 0.500000
vt 0.375000 0.250000
vt 0.375000 1.000000
vt 0.125000 0.750000
vt 0.875000 0.750000
vt 0.625000 1.000000
vt 0.625000 0.250000
vt 0.875000 0.500000
vt 0.125000 0.500000
vt 0.375000 0.250000
vt 0.375000 0.000000
vt 0.125000 0.750000
vt 0.375000 1.000000
vt 0.625000 1.000000
vt 0.625000 0.000000
vt 0.625000 0.250000
vt 0.875000 0.750000
vt 0.625000 1.000000
vt 0.875000 0.500000
vt 0.625000 0.250000
vt 0.875000 0.750000
vt 0.625000 1.000000
vt 0.625000 0.000000
vt 0.875000 0.500000
vt 0.625000 0.250000
vt 0.125000 0.500000
vt 0.375000 0.250000
vt 0.375000 1.000000
vt 0.125000 0.750000
vt 0.875000 0.750000
vt 0.625000 1.000000
vt 0.625000 0.250000
vt 0.875000 0.500000
vt 0.125000 0.500000
vt 0.375000 0.250000
vt 0.375000 0.000000
vt 0.125000 0.750000
vt 0.375000 1.000000
vt 0.625000 1.000000
vt 0.625000 0.000000
vt 0.625000 0.250000
vt 0.875000 0.750000
vt 0.625000 1.000000
vt 0.875000 0.500000
vt 0.625000 0.250000
vt 0.875000 0.750000
vt 0.625000 1.000000
vt 0.625000 0.000000
vt 0.875000 0.500000
vt 0.625000 0.250000
s 0
f 3/5/1 12/23/1 4/8/1
f 6/11/2 24/48/2 5/9/2
f 5/10/3 23/46/3 7/14/3
f 7/13/4 22/44/4 8/16/4
f 6/12/5 22/45/5 21/42/5
f 24/49/6 29/58/6 23/46/6
f 12/24/7 17/33/7 11/21/7
f 2/4/8 10/19/8 1/1/8
f 4/7/3 11/21/3 2/3/3
f 1/2/5 9/17/5 3/6/5
f 15/31/6 13/26/6 14/27/6
f 10/20/5 13/25/5 9/17/5
f 9/18/9 16/32/9 12/23/9
f 11/22/10 14/29/10 10/19/10
f 18/35/3 19/37/3 17/33/3
f 11/22/11 19/38/11 15/30/11
f 16/32/12 18/36/12 12/23/12
f 15/31/6 20/41/6 16/32/6
f 27/56/7 25/51/7 26/52/7
f 22/45/5 25/50/5 21/42/5
f 21/43/10 28/57/10 24/48/10
f 23/47/9 26/54/9 22/44/9
f 29/58/3 32/65/3 31/62/3
f 23/47/12 31/63/12 27/55/12
f 28/57/11 30/61/11 24/48/11
f 27/56/7 32/66/7 28/57/7
f 5/9/10 1/1/10 6/11/10
f 5/10/3 4/7/3 2/3/3
f 8/16/9 4/8/9 7/13/9
f 6/12/5 3/6/5 8/15/5
f 3/5/1 9/18/1 12/23/1
f 6/11/2 21/43/2 24/48/2
f 5/10/3 24/49/3 23/46/3
f 7/13/4 23/47/4 22/44/4
f 6/12/5 8/15/5 22/45/5
f 24/49/6 30/60/6 29/58/6
f 12/24/7 18/35/7 17/33/7
f 2/4/8 11/22/8 10/19/8
f 4/7/3 12/24/3 11/21/3
f 1/2/5 10/20/5 9/17/5
f 15/31/6 16/32/6 13/26/6
f 10/20/5 14/28/5 13/25/5
f 9/18/9 13/26/9 16/32/9
f 11/22/10 15/30/10 14/29/10
f 18/35/3 20/40/3 19/37/3
f 11/22/11 17/34/11 19/38/11
f 16/32/12 20/41/12 18/36/12
f 15/31/6 19/39/6 20/41/6
f 27/56/7 28/57/7 25/51/7
f 22/45/5 26/53/5 25/50/5
f 21/43/10 25/51/10 28/57/10
f 23/47/9 27/55/9 26/54/9
f 29/58/3 30/60/3 32/65/3
f 23/47/12 29/59/12 31/63/12
f 28/57/11 32/66/11 30/61/11
f 27/56/7 31/64/7 32/66/7
f 5/9/10 2/4/10 1/1/10
f 5/10/3 7/14/3 4/7/3
f 8/16/9 3/5/9 4/8/9
f 6/12/5 1/2/5 3/6/5
