# Blender 3.3.1
# www.blender.org
mtllib table_test_1.mtl
o Cube
v -4.152966 -3.980305 4.152966
v -4.152966 -1.985374 4.152966
v -4.152966 -3.980304 -4.152966
v -4.152966 -1.985373 -4.152966
v 4.152966 -3.980305 4.152966
v 4.152966 -1.985374 4.152966
v 4.152966 -3.980304 -4.152966
v 4.152966 -1.985373 -4.152966
v 0.000000 -3.693712 -0.000000
vn -1.0000 -0.0000 -0.0000
vn -0.0000 -0.0000 -1.0000
vn 1.0000 -0.0000 -0.0000
vn -0.0000 -0.0000 1.0000
vn -0.0000 -1.0000 -0.0000
vn -0.3804 0.9248 -0.0000
vn 0.3804 0.9248 -0.0000
vn -0.0000 0.9248 0.3804
vn -0.0000 0.9248 -0.3804
vt 0.375000 0.000000
vt 0.375000 1.000000
vt 0.125000 0.750000
vt 0.625000 0.000000
vt 0.625000 1.000000
vt 0.125000 0.500000
vt 0.375000 0.250000
vt 0.625000 0.250000
vt 0.375000 0.750000
vt 0.625000 0.750000
vt 0.375000 0.500000
vt 0.625000 0.500000
vt 0.000000 0.000000
s 0
f 2/4/1 3/7/1 1/1/1
f 4/8/2 7/11/2 3/7/2
f 7/11/3 6/10/3 5/9/3
f 6/10/4 1/2/4 5/9/4
f 7/11/5 1/3/5 3/6/5
f 6/10/6 8/12/6 9/13/6
f 4/8/7 2/4/7 9/13/7
f 4/8/8 9/13/8 8/12/8
f 6/10/9 9/13/9 2/4/9
f 2/4/1 4/8/1 3/7/1
f 4/8/2 8/12/2 7/11/2
f 7/11/3 8/12/3 6/10/3
f 6/10/4 2/5/4 1/2/4
f 7/11/5 5/9/5 1/3/5
